<svg xmlns="http://www.w3.org/2000/svg"
     viewBox="0 0 102 90"><defs><style>.cls-1{fill:#fff;}</style></defs><title>Everstake-Logo-Reversed</title><g
  id="Layer_2" data-name="Layer 2"><g id="Layer_1-2" data-name="Layer 1"><path class="cls-1" d="M99.33,39,79.68,5A10,10,0,0,0,71,0H31.74A12.45,12.45,0,0,0,21,6.21l-19.65,34a10,10,0,0,0,0,10L21,84.26a12.45,12.45,0,0,0,10.75,6.21H71a10,10,0,0,0,8.64-5l19.65-34A12.44,12.44,0,0,0,99.33,39ZM6.93,45.35l2.22-3.81h0L26.7,11.09l11,19.08a3.7,3.7,0,0,0,6.4-3.7L35.24,11.09h0a8.39,8.39,0,0,0-6.6-3.69H68.26L49.63,39.67h0a3.75,3.75,0,0,1-3.24,1.87H13.62A7.69,7.69,0,0,0,6.93,45.35ZM68.26,83.08H33.11l11-19.1a3.7,3.7,0,1,0-6.4-3.7l-11,19.1v0h0L24.52,83.2a7.7,7.7,0,0,0,.33-7L9.13,48.93H46.39a3.76,3.76,0,0,1,3.24,1.87h0L66.18,79.46a8.29,8.29,0,0,0,6.54,3.62ZM66.14,79.4h0Zm26.1-30.46L74.67,79.38,56,47.11a3.76,3.76,0,0,1,0-3.74h0L74.67,11.09h0l2.19-3.81a7.74,7.74,0,0,0,.42,8.33c.63.88,15,25.92,15,25.92H70.17a3.7,3.7,0,1,0,0,7.4h17.7l-.1,0a7.69,7.69,0,0,0,6.69-3.81l-2.23,3.83Z"/></g></g></svg>
