<?xml version="1.0" encoding="UTF-8"?>
<svg width="289px" height="52px" viewBox="0 0 289 52" version="1.1" xmlns="http://www.w3.org/2000/svg" xmlns:xlink="http://www.w3.org/1999/xlink">
    <!-- Generator: Sketch 52.5 (67469) - http://www.bohemiancoding.com/sketch -->
    <title>Logo_with_txt@2x</title>
    <desc>Created with Sketch.</desc>
    <g id="Page-1" stroke="none" stroke-width="1" fill="none" fill-rule="evenodd">
        <g id="Everstake_3.0-Copy" transform="translate(-31.000000, -7376.000000)" fill="#FFFFFF">
            <g id="Block_9" transform="translate(-1.000000, 7348.000000)">
                <g id="Logo_with_txt" transform="translate(32.000000, 28.000000)">
                    <g id="logo">
                        <g id="Group-13" transform="translate(0.000000, 0.156000)">
                            <path d="M34.9175446,18.7291667 L28.2635757,30.2711667 L21.2108946,18.0371667 C20.9589537,17.5998333 20.9589537,17.0561667 21.2098961,16.6191667 L21.2105617,16.6181667 L28.2639086,4.3825 L28.2655726,4.3855 L29.0949474,2.9415 C28.6060423,3.79316667 28.5970563,4.7845 28.9738028,5.6145 C29.0510159,5.78416667 29.144204,5.9455 29.2533673,6.09916667 C29.4899988,6.43216667 34.9175446,15.9251667 34.9175446,15.9251667 L26.5625586,15.9251667 C25.7900952,15.9251667 25.1630719,16.5531667 25.1630719,17.3271667 C25.1630719,18.1011667 25.7900952,18.7291667 26.5625586,18.7291667 L33.2631216,18.7291667 L33.2268448,18.7195 C34.2342756,18.7201667 35.2144156,18.2111667 35.7582351,17.2755 L34.913218,18.7291667 L34.9175446,18.7291667 Z M25.8383533,31.6755 L25.839019,31.6761667 L25.8370221,31.6728333 L12.5320796,31.6728333 L16.7072429,24.4301667 C17.0939739,23.7595 16.8643316,22.9025 16.1953736,22.5155 C15.5260827,22.1271667 14.6704156,22.3575 14.2836846,23.0281667 L10.1101854,30.2681667 L10.1141792,30.2785 L10.1125151,30.2755 L9.28314028,31.7195 C9.77004852,30.8715 9.78036579,29.8855 9.40861151,29.0575 L3.45455241,18.7291667 L17.5592491,18.7291667 C18.0637966,18.7291667 18.5333984,19.0008333 18.7866706,19.4378333 L18.7870034,19.4385 L25.0505804,30.3038333 C25.1490936,30.4518333 26.0077561,31.6755 27.5277219,31.6755 L25.8383533,31.6755 Z M2.62384635,17.3698333 L3.46353841,15.9251667 L3.45455241,15.9251667 L10.1085213,4.3825 L14.2780267,11.6158333 C14.5372896,12.0651667 15.0075571,12.3168333 15.4908044,12.3168333 C15.7284342,12.3168333 15.9693922,12.2565 16.1897157,12.1285 C16.8586737,11.7421667 17.088316,10.8848333 16.7015851,10.2141667 L13.3398215,4.3825 C13.3398215,4.3825 12.459526,2.98183333 10.8430439,2.98183333 L12.5324124,2.98183333 L12.5317468,2.98116667 L25.8403502,2.98116667 L18.7863378,15.2165 L18.7856722,15.2175 C18.5337313,15.6541667 18.0644622,15.9251667 17.5609132,15.9251667 L17.5592491,15.9251667 L5.15390544,15.9251667 L5.1552367,15.9255 C4.14780591,15.9251667 3.16766594,16.4341667 2.62384635,17.3698333 Z M37.6010314,14.9741667 L30.1622849,2.06916667 C29.4896659,0.902166667 28.2362849,0.177166667 26.8913798,0.177166667 L12.0132212,0.177166667 C10.3398277,0.177166667 8.78058974,1.0795 7.94422582,2.53116667 L0.504813686,15.4355 C-0.168138103,16.6018333 -0.168138103,18.0515 0.504813686,19.2185 L7.94422582,32.1235 C8.78058974,33.5748333 10.3398277,34.4768333 12.0132212,34.4768333 L26.8913798,34.4768333 C28.2369505,34.4768333 29.4903316,33.7518333 30.1616193,32.5855 L37.6010314,19.6805 C38.438061,18.2285 38.438061,16.4248333 37.6010314,14.9741667 Z" id="Fill-2"></path>
                            <path d="" id="Fill-3"></path>
                            <path d="M118.682902,9.7194 C117.746694,9.7194 116.918983,9.93573333 116.221736,10.3624 C115.506849,10.8000667 114.86252,11.3547333 114.306386,12.0110667 L114.230504,12.1007333 L113.786196,12.1007333 L113.322585,10.0597333 L108.523061,10.0597333 C108.15763,10.0597333 107.83014,10.2870667 107.701674,10.6297333 L106.832028,12.9527333 L112.404349,12.9527333 C112.404349,12.9527333 110.661064,12.9527333 110.661064,14.3697333 L110.661064,22.1214 L108.523394,22.1214 C108.15763,22.1214 107.83014,22.3487333 107.701674,22.6917333 L106.832028,25.0147333 L119.177133,25.0147333 C119.542896,25.0147333 119.870053,24.7874 119.998853,24.4444 L120.868498,22.1214 L114.167269,22.1214 L114.167269,15.2034 L114.208538,15.1400667 C114.57164,14.5837333 115.02094,14.0857333 115.542461,13.6594 C116.091272,13.2114 116.815478,12.9837333 117.694775,12.9837333 C118.258563,12.9837333 118.678909,13.1950667 118.943829,13.6117333 C119.16149,13.9554 119.27964,14.4497333 119.303269,15.1177333 L122.41043,15.1177333 C122.383472,13.1944 122.044,11.8040667 121.401002,10.9827333 C120.735372,10.1327333 119.846091,9.7194 118.682902,9.7194" id="Fill-4"></path>
                            <path d="M137.593547,17.2557 C136.871671,16.9043667 136.066592,16.6140333 135.201938,16.3920333 C134.316318,16.1653667 133.502253,15.9540333 132.760408,15.7573667 C132.008579,15.5587 131.366912,15.3407 130.853379,15.1093667 C130.251649,14.8393667 129.946458,14.4597 129.946458,13.9803667 C129.946458,13.5790333 130.112865,13.0303667 130.904299,12.6943667 C131.469086,12.4553667 132.208934,12.3343667 133.103207,12.3343667 C133.591114,12.3343667 134.092001,12.3880333 134.592221,12.4943667 C135.088449,12.6003667 135.568368,12.7393667 136.018001,12.9070333 C136.464971,13.0740333 136.898962,13.2593667 137.306327,13.4577 C137.624165,13.6137 137.915711,13.7663667 138.174641,13.9140333 L139.616728,11.5763667 C139.374106,11.4083667 139.09787,11.2243667 138.787021,11.0247 C138.401954,10.7777 137.930688,10.5520333 137.386203,10.3533667 C136.834728,10.1533667 136.177752,9.98003333 135.434243,9.8387 C134.690735,9.69836667 133.813435,9.62703333 132.825307,9.62703333 C131.904741,9.62703333 131.037425,9.72836667 130.247323,9.92836667 C129.467537,10.1260333 128.788595,10.4207 128.229133,10.8037 C127.676327,11.1823667 127.234016,11.6493667 126.914847,12.1920333 C126.600337,12.7270333 126.440585,13.3597 126.440585,14.0733667 C126.440585,14.9343667 126.674221,15.6433667 127.13517,16.1807 C127.616088,16.7407 128.219148,17.2093667 128.927046,17.5737 C129.646259,17.9443667 130.448343,18.2387 131.310999,18.4497 C132.187301,18.6643667 133.010019,18.8783667 133.757854,19.0857 C134.510682,19.2953667 135.154013,19.5300333 135.669876,19.7830333 C136.266613,20.0750333 136.569142,20.4850333 136.569142,21.0010333 C136.569142,21.6320333 136.273602,22.1070333 135.714141,22.3750333 C134.74698,22.8387 133.327525,22.8337 131.977627,22.5007 C131.339288,22.3437 130.729571,22.1473667 130.167114,21.9170333 C129.601662,21.6867 129.084467,21.4247 128.629842,21.1390333 C128.286044,20.9230333 127.999158,20.7263667 127.761195,20.5427 L126.178993,23.0250333 C126.916178,23.6457 127.879677,24.2010333 129.045861,24.6777 C130.295914,25.1887 131.80656,25.4477 133.5362,25.4477 C135.711145,25.4477 137.367898,25.0130333 138.459198,24.1563667 C139.546505,23.3030333 140.075015,22.1593667 140.075015,20.6607 C140.075015,19.8213667 139.841711,19.1287 139.381761,18.6013667 C138.901842,18.0527 138.300445,17.6000333 137.593547,17.2557" id="Fill-5"></path>
                            <path d="M157.305676,20.9493667 C156.995492,21.2063667 156.650696,21.4437 156.280938,21.6553667 C155.906189,21.8693667 155.477856,22.0487 155.006923,22.1883667 C154.534658,22.3287 154.001156,22.3997 153.422391,22.3997 C152.278173,22.3997 151.37092,22.0100333 150.726257,21.2420333 C150.092578,20.4867 149.770746,19.2713667 149.770746,17.6297 L149.770746,12.9527 L156.77883,12.9527 L157.862142,10.0597 L149.770746,10.0597 L149.770746,5.47203333 L146.902547,6.2897 C146.525467,6.39736667 146.265206,6.74236667 146.265206,7.13503333 L146.265206,10.0597 L144.899666,10.0597 C144.533903,10.0597 144.206413,10.2870333 144.077946,10.6300333 L143.208301,12.9527 L148.149604,12.9527 C148.149604,12.9527 146.265206,12.9527 146.265206,14.4437 L146.265206,17.6297 C146.265206,20.3563667 146.829993,22.3647 147.944257,23.5983667 C149.050867,24.8253667 150.738239,25.4477 152.95878,25.4477 C153.574487,25.4477 154.210497,25.3767 154.850167,25.2367 C155.491501,25.0963667 156.115197,24.8983667 156.704279,24.6480333 C157.296357,24.3970333 157.854155,24.1023667 158.363694,23.7717 C158.804008,23.4867 159.18375,23.1717 159.494267,22.8347 L157.906739,20.4497 L157.305676,20.9493667 Z" id="Fill-6"></path>
                            <path d="M171.926136,20.5706333 L171.895184,20.6273 C171.655224,21.0706333 171.271489,21.4889667 170.754294,21.8709667 C170.222456,22.2633 169.432353,22.4619667 168.404954,22.4619667 C167.555943,22.4619667 166.954546,22.2823 166.565486,21.9123 C166.17942,21.5439667 165.983392,21.0293 165.983392,20.3823 C165.983392,19.9776333 166.092556,19.6249667 166.307887,19.3339667 C166.513234,19.0563 166.790136,18.8276333 167.130272,18.6549667 C167.453436,18.4913 167.825523,18.3689667 168.235884,18.2919667 C169.110854,18.1296333 170.01245,18.1616333 170.787243,18.2589667 C171.204926,18.3119667 171.511115,18.3583 171.72212,18.4009667 L171.926136,18.4423 L171.926136,19.9606333 L171.926136,20.5706333 Z M175.402388,21.8869667 C175.38142,21.6239667 175.351467,21.3506333 175.311529,21.0676333 C175.268263,20.5159667 175.247296,20.0206333 175.247296,19.5786333 C175.247296,18.9943 175.283905,18.3199667 175.355793,17.5743 C175.426683,16.8473 175.46296,15.9503 175.46296,14.9083 C175.46296,14.1146333 175.363448,13.3909667 175.165756,12.7576333 C174.973056,12.1399667 174.656216,11.6019667 174.223224,11.1583 C173.790232,10.7153 173.210468,10.3669667 172.500241,10.1233 C171.778366,9.87563333 170.886422,9.7503 169.850369,9.7503 C168.397632,9.7503 167.124615,9.88296667 166.066596,10.1449667 C165.093445,10.3863 164.217143,10.6733 163.457327,10.9989667 L164.259411,13.6603 C164.790916,13.4276333 165.420935,13.1943 166.137486,12.9646333 C166.998145,12.6899667 167.97296,12.5503 169.035305,12.5503 C169.966188,12.5503 170.688397,12.7396333 171.181296,13.1123 C171.695828,13.5019667 171.956755,14.1373 171.956755,15.0009667 L171.956755,15.5776333 C171.956755,15.8056333 171.934789,16.0329667 171.890857,16.2566333 L171.847591,16.4766333 L171.624272,16.4609667 C171.027202,16.4196333 170.523653,16.3786333 170.112294,16.3366333 C169.710919,16.2966333 169.327184,16.2763 168.971737,16.2763 C167.952658,16.2763 167.017115,16.3729667 166.191402,16.5636333 C165.374341,16.7519667 164.669772,17.0416333 164.096664,17.4239667 C163.532876,17.7996333 163.096888,18.2873 162.801016,18.8739667 C162.503812,19.4626333 162.353713,20.1786333 162.353713,21.0013 C162.353713,22.2996333 162.768067,23.3106333 163.621072,24.0916333 C164.468751,24.8683 165.639927,25.2623 167.101983,25.2623 C168.336727,25.2623 169.324854,25.0409667 170.038409,24.6036333 C170.758954,24.1616333 171.32008,23.6319667 171.706145,23.0289667 L171.781028,22.9116333 L172.282913,22.9116333 L172.688947,25.0146333 L176.138574,25.0146333 C176.560916,25.0146333 176.923019,24.7136333 177.000898,24.2979667 L177.408263,22.1213 L175.42036,22.1213 L175.402388,21.8869667 Z" id="Fill-7"></path>
                            <path d="M189.588757,16.8493 L195.594402,10.0596333 L191.555028,10.0596333 L186.490583,16.2143 L185.189942,16.2143 L185.189942,3.8743 L180.843046,3.8743 C180.477283,3.8743 180.149793,4.1013 180.021326,4.4443 L179.151681,6.7673 L183.385087,6.7673 C183.385087,6.7673 181.684402,6.7673 181.684402,8.00896667 L181.684402,25.0146333 L185.189942,25.0146333 L185.189942,18.6123 L186.644011,18.6123 L191.955404,25.0146333 L194.893161,25.0146333 C195.259258,25.0146333 195.586415,24.7873 195.714881,24.4446333 L196.58486,22.1213 L193.845793,22.1213 L189.588757,16.8493 Z" id="Fill-8"></path>
                            <path d="M83.0136952,10.0597333 C82.6322893,10.0597333 82.2948149,10.3064 82.1783297,10.6700667 L78.9919596,19.5514 L78.4165226,19.5514 L74.1708025,10.0597333 L73.5910389,10.0597333 L71.9888678,10.0597333 L71.0832784,10.0597333 C70.7175148,10.0597333 70.3903577,10.2870667 70.2618911,10.6297333 L69.3922457,12.9527333 L73.7035303,12.9527333 C73.7035303,12.9527333 71.64507,12.9527333 72.4295148,14.8630667 L76.7880591,25.0147333 L80.4390389,25.0147333 L86.1424883,10.0597333 L83.0136952,10.0597333 Z" id="Fill-9"></path>
                            <path d="M64.0554252,16.1832667 L55.9300815,16.1832667 L55.9517145,15.9089333 C55.995646,15.3472667 56.1527347,14.8332667 56.418321,14.3819333 C56.6819104,13.9336 57.0217145,13.5536 57.4277487,13.2512667 C57.8287907,12.9522667 58.2860784,12.7216 58.7853008,12.5662667 C59.2828591,12.4122667 59.8173599,12.3342667 60.3741593,12.3342667 C61.5935932,12.3342667 62.5231453,12.6629333 63.136856,13.3119333 C63.7462401,13.9569333 64.0554252,14.8369333 64.0554252,15.9289333 L64.0554252,16.1832667 Z M65.0112697,10.9552667 C64.3413132,10.4716 63.5968062,10.1262667 62.7983832,9.9286 C61.987646,9.7286 61.1925512,9.62693333 60.43573,9.62693333 C59.2948404,9.62693333 58.2208467,9.79393333 57.2430364,10.1232667 C56.2718824,10.4512667 55.4138855,10.9486 54.6923428,11.6019333 C53.9724641,12.2539333 53.3960286,13.0822667 52.9803428,14.0646 C52.5633257,15.0489333 52.3519882,16.2176 52.3519882,17.5372667 C52.3519882,18.7796 52.5386974,19.8986 52.906125,20.8639333 C53.2732199,21.8256 53.8090519,22.6586 54.4999757,23.3402667 C55.1902339,24.0222667 56.0472323,24.5486 57.0470084,24.9056 C58.0534407,25.2652667 59.2142992,25.4476 60.4973008,25.4476 C61.2388124,25.4476 64.706744,25.3206 67.3532883,23.4239333 L66.8663801,20.9522667 C64.3639446,22.5186 62.0042868,22.7402667 60.7442495,22.7402667 C60.1092386,22.7402667 59.5015185,22.6702667 58.9387285,22.5316 C58.3666196,22.3912667 57.8500908,22.1656 57.4051173,21.8606 C56.952489,21.5512667 56.5830644,21.1479333 56.3081593,20.6626 C56.0312572,20.1749333 55.8801593,19.5736 55.8581935,18.8749333 L55.8502059,18.6122667 L67.019475,18.6122667 C67.1955341,17.6762667 67.2840628,16.7952667 67.2840628,15.9909333 C67.2840628,14.7409333 67.0703956,13.6982667 66.6487191,12.8922667 C66.2267098,12.0866 65.6759011,11.4349333 65.0112697,10.9552667 Z" id="Fill-10"></path>
                            <path d="M99.9981397,16.1832667 L91.872796,16.1832667 L91.8944289,15.9089333 C91.9383605,15.3472667 92.0954491,14.8332667 92.3610355,14.3819333 C92.6246249,13.9336 92.9644289,13.5536 93.3704631,13.2512667 C93.7715051,12.9522667 94.2287928,12.7216 94.7280152,12.5662667 C95.2255736,12.4122667 95.7600743,12.3342667 96.3168737,12.3342667 C97.5363076,12.3342667 98.4658597,12.6629333 99.0795705,13.3119333 C99.6889546,13.9569333 99.9981397,14.8369333 99.9981397,15.9289333 L99.9981397,16.1832667 Z M100.953984,10.9552667 C100.284028,10.4716 99.5395207,10.1262667 98.7410977,9.9286 C97.9303605,9.7286 97.1352656,9.62693333 96.3784445,9.62693333 C95.2375549,9.62693333 94.1635611,9.79393333 93.1857509,10.1232667 C92.2145969,10.4512667 91.3566,10.9486 90.6350572,11.6019333 C89.9151785,12.2539333 89.3387431,13.0822667 88.9230572,14.0646 C88.5060401,15.0489333 88.2947026,16.2176 88.2947026,17.5372667 C88.2947026,18.7796 88.4814118,19.8986 88.8488395,20.8639333 C89.2159344,21.8256 89.7517664,22.6586 90.4426902,23.3402667 C91.1329484,24.0222667 91.9899468,24.5486 92.9897229,24.9056 C93.9961552,25.2652667 95.1570137,25.4476 96.4400152,25.4476 C97.1815269,25.4476 100.649458,25.3206 103.296003,23.4239333 L102.809095,20.9522667 C100.306659,22.5186 97.9470012,22.7402667 96.6869639,22.7402667 C96.051953,22.7402667 95.444233,22.6702667 94.8814429,22.5316 C94.3093341,22.3912667 93.7928053,22.1656 93.3478317,21.8606 C92.8952034,21.5512667 92.5257788,21.1479333 92.2508737,20.6626 C91.9739717,20.1749333 91.8228737,19.5736 91.8009079,18.8749333 L91.7929204,18.6122667 L102.962522,18.6122667 C103.138249,17.6762667 103.226777,16.7952667 103.226777,15.9909333 C103.226777,14.7409333 103.01311,13.6982667 102.591434,12.8922667 C102.169424,12.0866 101.618616,11.4349333 100.953984,10.9552667 Z" id="Fill-11"></path>
                            <path d="M210.471729,16.1832667 L202.346385,16.1832667 L202.368351,15.9089333 C202.41195,15.3472667 202.569371,14.8332667 202.834625,14.3819333 C203.098214,13.9336 203.438351,13.5536 203.844053,13.2512667 C204.245095,12.9522667 204.702382,12.7216 205.201605,12.5662667 C205.699163,12.4122667 206.233664,12.3342667 206.790463,12.3342667 C208.009897,12.3342667 208.939449,12.6629333 209.55316,13.3119333 C210.162544,13.9569333 210.471729,14.8369333 210.471729,15.9289333 L210.471729,16.1832667 Z M211.427574,10.9552667 C210.757617,10.4716 210.013443,10.1262667 209.214687,9.9286 C208.40395,9.7286 207.608855,9.62693333 206.852034,9.62693333 C205.711144,9.62693333 204.637151,9.79393333 203.659673,10.1232667 C202.688186,10.4512667 201.830189,10.9486 201.108647,11.6019333 C200.388768,12.2539333 199.812665,13.0822667 199.396647,14.0646 C198.97963,15.0489333 198.768292,16.2176 198.768292,17.5372667 C198.768292,18.7796 198.955001,19.8986 199.322429,20.8639333 C199.689524,21.8256 200.225356,22.6586 200.91628,23.3402667 C201.606538,24.0222667 202.463536,24.5486 203.463312,24.9056 C204.470077,25.2652667 205.630603,25.4476 206.913605,25.4476 C207.655116,25.4476 211.123048,25.3206 213.769592,23.4239333 L213.283017,20.9522667 C210.780249,22.5186 208.420591,22.7402667 207.160553,22.7402667 C206.525542,22.7402667 205.918155,22.6702667 205.355365,22.5316 C204.783256,22.3912667 204.266395,22.1656 203.821421,21.8606 C203.368793,21.5512667 202.999368,21.1479333 202.724463,20.6626 C202.447561,20.1749333 202.296463,19.5736 202.274497,18.8749333 L202.26651,18.6122667 L213.436112,18.6122667 C213.611838,17.6762667 213.700367,16.7952667 213.700367,15.9909333 C213.700367,14.7409333 213.4867,13.6982667 213.065356,12.8922667 C212.643014,12.0866 212.092205,11.4349333 211.427574,10.9552667 Z" id="Fill-12"></path>
                        </g>
                    </g>
                    <path d="M58.816,40.224 C58.816,39.7759978 58.6426684,39.3866683 58.296,39.056 C57.9493316,38.7253317 57.4613365,38.56 56.832,38.56 C56.298664,38.56 55.8773349,38.6693322 55.568,38.888 C55.2586651,39.1066678 55.104,39.4026648 55.104,39.776 C55.104,39.968001 55.141333,40.1413326 55.216,40.296 C55.290667,40.4506674 55.4213324,40.5893327 55.608,40.712 C55.7946676,40.8346673 56.0399985,40.9439995 56.344,41.04 C56.6480015,41.1360005 57.0346643,41.2266662 57.504,41.312 C58.6773392,41.5253344 59.5733302,41.8826642 60.192,42.384 C60.8106698,42.8853358 61.12,43.6266618 61.12,44.608 L61.12,44.8 C61.12,45.3226693 61.0266676,45.7946646 60.84,46.216 C60.6533324,46.6373354 60.3840018,46.9973318 60.032,47.296 C59.6799982,47.5946682 59.2533358,47.8239992 58.752,47.984 C58.2506642,48.1440008 57.6853365,48.224 57.056,48.224 C56.3199963,48.224 55.6720028,48.120001 55.112,47.912 C54.5519972,47.703999 54.0853352,47.4160018 53.712,47.048 C53.3386648,46.6799982 53.056001,46.2480025 52.864,45.752 C52.671999,45.2559975 52.576,44.7146696 52.576,44.128 L52.576,43.648 L54.688,43.648 L54.688,44.032 C54.688,44.7040034 54.8826647,45.239998 55.272,45.64 C55.6613353,46.040002 56.2666626,46.24 57.088,46.24 C57.7280032,46.24 58.2026651,46.1013347 58.512,45.824 C58.8213349,45.5466653 58.976,45.2160019 58.976,44.832 C58.976,44.6506658 58.9440003,44.4773342 58.88,44.312 C58.8159997,44.1466658 58.7040008,43.997334 58.544,43.864 C58.3839992,43.730666 58.1653347,43.6106672 57.888,43.504 C57.6106653,43.3973328 57.2586688,43.306667 56.832,43.232 C56.2666638,43.1359995 55.7493357,43.0106674 55.28,42.856 C54.8106643,42.7013326 54.4026684,42.4960013 54.056,42.24 C53.7093316,41.9839987 53.440001,41.6640019 53.248,41.28 C53.055999,40.8959981 52.96,40.4266694 52.96,39.872 L52.96,39.776 C52.96,39.317331 53.0533324,38.8933353 53.24,38.504 C53.4266676,38.1146647 53.6879983,37.7760014 54.024,37.488 C54.3600017,37.1999986 54.765331,36.9760008 55.24,36.816 C55.714669,36.6559992 56.2453304,36.576 56.832,36.576 C57.4933366,36.576 58.0799974,36.6693324 58.592,36.856 C59.1040026,37.0426676 59.5333316,37.2959984 59.88,37.616 C60.2266684,37.9360016 60.4879991,38.3039979 60.664,38.72 C60.8400009,39.1360021 60.928,39.573331 60.928,40.032 L60.928,40.608 L58.816,40.608 L58.816,40.224 Z M62.8887273,40.064 L65.2407273,40.064 L65.2407273,36.8 L67.2567273,36.8 L67.2567273,40.064 L70.1207273,40.064 L70.1207273,41.984 L67.2567273,41.984 L67.2567273,45.6 C67.2567273,45.9200016 67.4007258,46.08 67.6887273,46.08 L69.8327273,46.08 L69.8327273,48 L66.4727273,48 C66.1100588,48 65.8140617,47.8826678 65.5847273,47.648 C65.3553928,47.4133322 65.2407273,47.1146685 65.2407273,46.752 L65.2407273,41.984 L62.8887273,41.984 L62.8887273,40.064 Z M78.1134545,46.848 C77.9001201,47.3493358 77.6014564,47.703999 77.2174545,47.912 C76.8334526,48.120001 76.3854571,48.224 75.8734545,48.224 C75.3934521,48.224 74.94279,48.1333342 74.5214545,47.952 C74.1001191,47.7706658 73.7294561,47.5040018 73.4094545,47.152 C73.0894529,46.7999982 72.8361221,46.3733358 72.6494545,45.872 C72.4627869,45.3706642 72.3694545,44.8000032 72.3694545,44.16 L72.3694545,43.904 C72.3694545,43.2746635 72.4601203,42.7093358 72.6414545,42.208 C72.8227888,41.7066642 73.0681196,41.2800018 73.3774545,40.928 C73.6867894,40.5759982 74.0467858,40.3066676 74.4574545,40.12 C74.8681232,39.9333324 75.3081188,39.84 75.7774545,39.84 C76.3427907,39.84 76.7987861,39.935999 77.1454545,40.128 C77.4921229,40.320001 77.7667868,40.6186646 77.9694545,41.024 L78.2574545,41.024 L78.2574545,40.064 L80.2734545,40.064 L80.2734545,45.6 C80.2734545,45.9200016 80.4174531,46.08 80.7054545,46.08 L81.0094545,46.08 L81.0094545,48 L79.6334545,48 C79.270786,48 78.974789,47.8933344 78.7454545,47.68 C78.51612,47.4666656 78.4014545,47.189335 78.4014545,46.848 L78.1134545,46.848 Z M76.3214545,46.304 C76.9081241,46.304 77.3774528,46.1093353 77.7294545,45.72 C78.0814563,45.3306647 78.2574545,44.8000034 78.2574545,44.128 L78.2574545,43.936 C78.2574545,43.2639966 78.0814563,42.7333353 77.7294545,42.344 C77.3774528,41.9546647 76.9081241,41.76 76.3214545,41.76 C75.7347849,41.76 75.2654563,41.9546647 74.9134545,42.344 C74.5614528,42.7333353 74.3854545,43.2639966 74.3854545,43.936 L74.3854545,44.128 C74.3854545,44.8000034 74.5614528,45.3306647 74.9134545,45.72 C75.2654563,46.1093353 75.7347849,46.304 76.3214545,46.304 Z M85.4981818,42.976 L85.8821818,42.976 L87.9941818,40.064 L90.2021818,40.064 L90.2021818,40.16 L87.6421818,43.792 L87.6421818,44.08 L90.4581818,47.904 L90.4581818,48 L88.1541818,48 L85.8821818,44.896 L85.4981818,44.896 L85.4981818,48 L83.4821818,48 L83.4821818,36.8 L85.4981818,36.8 L85.4981818,42.976 Z M92.850909,46.08 L95.538909,46.08 L95.538909,41.984 L93.042909,41.984 L93.042909,40.064 L97.554909,40.064 L97.554909,46.08 L99.858909,46.08 L99.858909,48 L92.850909,48 L92.850909,46.08 Z M98.050909,37.712 C98.050909,37.9253344 98.0109094,38.1253324 97.930909,38.312 C97.8509086,38.4986676 97.7415764,38.658666 97.602909,38.792 C97.4642417,38.925334 97.3015766,39.0319996 97.114909,39.112 C96.9282414,39.1920004 96.7335767,39.232 96.530909,39.232 C96.3175746,39.232 96.1202433,39.1920004 95.938909,39.112 C95.7575748,39.0319996 95.5975764,38.925334 95.458909,38.792 C95.3202417,38.658666 95.2109094,38.4986676 95.130909,38.312 C95.0509086,38.1253324 95.010909,37.9253344 95.010909,37.712 C95.010909,37.4986656 95.0509086,37.2986676 95.130909,37.112 C95.2109094,36.9253324 95.3202417,36.765334 95.458909,36.632 C95.5975764,36.498666 95.7575748,36.3920004 95.938909,36.312 C96.1202433,36.2319996 96.3175746,36.192 96.530909,36.192 C96.7335767,36.192 96.9282414,36.2319996 97.114909,36.312 C97.3015766,36.3920004 97.4642417,36.498666 97.602909,36.632 C97.7415764,36.765334 97.8509086,36.9253324 97.930909,37.112 C98.0109094,37.2986676 98.050909,37.4986656 98.050909,37.712 Z M104.587636,48 L102.571636,48 L102.571636,40.064 L104.587636,40.064 L104.587636,41.248 L104.875636,41.248 C105.056971,40.7999978 105.350301,40.4533346 105.755636,40.208 C106.160972,39.9626654 106.635634,39.84 107.179636,39.84 C107.563638,39.84 107.923635,39.9013327 108.259636,40.024 C108.595638,40.1466673 108.891635,40.3359987 109.147636,40.592 C109.403638,40.8480013 109.603636,41.1733314 109.747636,41.568 C109.891637,41.9626686 109.963636,42.4319973 109.963636,42.976 L109.963636,48 L107.947636,48 L107.947636,43.488 C107.947636,42.9226638 107.811638,42.477335 107.539636,42.152 C107.267635,41.826665 106.875639,41.664 106.363636,41.664 C105.7663,41.664 105.320971,41.863998 105.027636,42.264 C104.734301,42.664002 104.587636,43.1999966 104.587636,43.872 L104.587636,48 Z M118.100364,46.848 L117.812364,46.848 C117.72703,47.0293342 117.623031,47.2026658 117.500364,47.368 C117.377696,47.5333342 117.217698,47.6799994 117.020364,47.808 C116.823029,47.9360006 116.588365,48.037333 116.316364,48.112 C116.044362,48.186667 115.716365,48.224 115.332364,48.224 C114.841694,48.224 114.385699,48.1360009 113.964364,47.96 C113.543028,47.7839991 113.175032,47.5226684 112.860364,47.176 C112.545695,46.8293316 112.300364,46.4053358 112.124364,45.904 C111.948363,45.4026642 111.860364,44.8266699 111.860364,44.176 L111.860364,43.888 C111.860364,43.2479968 111.953696,42.6773358 112.140364,42.176 C112.327031,41.6746642 112.583029,41.2506684 112.908364,40.904 C113.233699,40.5573316 113.612361,40.2933342 114.044364,40.112 C114.476366,39.9306658 114.932361,39.84 115.412364,39.84 C116.052367,39.84 116.559028,39.9599988 116.932364,40.2 C117.305699,40.4400012 117.599029,40.7786645 117.812364,41.216 L118.100364,41.216 L118.100364,40.064 L120.116364,40.064 L120.116364,49.952 C120.116364,50.3146685 120.001698,50.6133322 119.772364,50.848 C119.543029,51.0826678 119.247032,51.2 118.884364,51.2 L113.540364,51.2 L113.540364,49.28 L117.668364,49.28 C117.956365,49.28 118.100364,49.1200016 118.100364,48.8 L118.100364,46.848 Z M115.988364,46.304 C116.6177,46.304 117.127028,46.104002 117.516364,45.704 C117.905699,45.303998 118.100364,44.7786699 118.100364,44.128 L118.100364,43.936 C118.100364,43.2853301 117.905699,42.760002 117.516364,42.36 C117.127028,41.959998 116.6177,41.76 115.988364,41.76 C115.359027,41.76 114.849699,41.9546647 114.460364,42.344 C114.071028,42.7333353 113.876364,43.2639966 113.876364,43.936 L113.876364,44.128 C113.876364,44.8000034 114.071028,45.3306647 114.460364,45.72 C114.849699,46.1093353 115.359027,46.304 115.988364,46.304 Z M137.733818,40.224 C137.733818,39.7759978 137.560486,39.3866683 137.213818,39.056 C136.86715,38.7253317 136.379155,38.56 135.749818,38.56 C135.216482,38.56 134.795153,38.6693322 134.485818,38.888 C134.176483,39.1066678 134.021818,39.4026648 134.021818,39.776 C134.021818,39.968001 134.059151,40.1413326 134.133818,40.296 C134.208485,40.4506674 134.33915,40.5893327 134.525818,40.712 C134.712486,40.8346673 134.957817,40.9439995 135.261818,41.04 C135.56582,41.1360005 135.952482,41.2266662 136.421818,41.312 C137.595157,41.5253344 138.491148,41.8826642 139.109818,42.384 C139.728488,42.8853358 140.037818,43.6266618 140.037818,44.608 L140.037818,44.8 C140.037818,45.3226693 139.944486,45.7946646 139.757818,46.216 C139.57115,46.6373354 139.30182,46.9973318 138.949818,47.296 C138.597816,47.5946682 138.171154,47.8239992 137.669818,47.984 C137.168482,48.1440008 136.603155,48.224 135.973818,48.224 C135.237814,48.224 134.589821,48.120001 134.029818,47.912 C133.469815,47.703999 133.003153,47.4160018 132.629818,47.048 C132.256483,46.6799982 131.973819,46.2480025 131.781818,45.752 C131.589817,45.2559975 131.493818,44.7146696 131.493818,44.128 L131.493818,43.648 L133.605818,43.648 L133.605818,44.032 C133.605818,44.7040034 133.800483,45.239998 134.189818,45.64 C134.579153,46.040002 135.184481,46.24 136.005818,46.24 C136.645821,46.24 137.120483,46.1013347 137.429818,45.824 C137.739153,45.5466653 137.893818,45.2160019 137.893818,44.832 C137.893818,44.6506658 137.861818,44.4773342 137.797818,44.312 C137.733818,44.1466658 137.621819,43.997334 137.461818,43.864 C137.301817,43.730666 137.083153,43.6106672 136.805818,43.504 C136.528483,43.3973328 136.176487,43.306667 135.749818,43.232 C135.184482,43.1359995 134.667154,43.0106674 134.197818,42.856 C133.728482,42.7013326 133.320486,42.4960013 132.973818,42.24 C132.62715,41.9839987 132.357819,41.6640019 132.165818,41.28 C131.973817,40.8959981 131.877818,40.4266694 131.877818,39.872 L131.877818,39.776 C131.877818,39.317331 131.97115,38.8933353 132.157818,38.504 C132.344486,38.1146647 132.605816,37.7760014 132.941818,37.488 C133.27782,37.1999986 133.683149,36.9760008 134.157818,36.816 C134.632487,36.6559992 135.163148,36.576 135.749818,36.576 C136.411155,36.576 136.997816,36.6693324 137.509818,36.856 C138.021821,37.0426676 138.45115,37.2959984 138.797818,37.616 C139.144486,37.9360016 139.405817,38.3039979 139.581818,38.72 C139.757819,39.1360021 139.845818,39.573331 139.845818,40.032 L139.845818,40.608 L137.733818,40.608 L137.733818,40.224 Z M143.806545,44.688 C143.817212,44.9226678 143.873211,45.1386657 143.974545,45.336 C144.075879,45.5333343 144.214544,45.7039993 144.390545,45.848 C144.566546,45.9920007 144.769211,46.1039996 144.998545,46.184 C145.22788,46.2640004 145.470544,46.304 145.726545,46.304 C146.227881,46.304 146.611877,46.2160009 146.878545,46.04 C147.145213,45.8639991 147.337211,45.6533346 147.454545,45.408 L149.182545,46.368 C149.086545,46.5706677 148.953213,46.7813322 148.782545,47 C148.611878,47.2186678 148.390547,47.4186658 148.118545,47.6 C147.846544,47.7813342 147.515881,47.9306661 147.126545,48.048 C146.73721,48.1653339 146.281215,48.224 145.758545,48.224 C145.161209,48.224 144.617214,48.128001 144.126545,47.936 C143.635876,47.743999 143.21188,47.4666685 142.854545,47.104 C142.49721,46.7413315 142.21988,46.2986693 142.022545,45.776 C141.825211,45.2533307 141.726545,44.6613366 141.726545,44 L141.726545,43.904 C141.726545,43.295997 141.830544,42.7413358 142.038545,42.24 C142.246546,41.7386642 142.531877,41.3120018 142.894545,40.96 C143.257214,40.6079982 143.68121,40.3333343 144.166545,40.136 C144.651881,39.9386657 145.171876,39.84 145.726545,39.84 C146.409215,39.84 146.995876,39.9599988 147.486545,40.2 C147.977214,40.4400012 148.382544,40.7439982 148.702545,41.112 C149.022547,41.4800018 149.257211,41.8853311 149.406545,42.328 C149.555879,42.7706689 149.630545,43.1999979 149.630545,43.616 L149.630545,44.688 L143.806545,44.688 Z M145.710545,41.664 C145.198543,41.664 144.782547,41.7946654 144.462545,42.056 C144.142544,42.3173346 143.934546,42.618665 143.838545,42.96 L147.582545,42.96 C147.518545,42.5866648 147.318547,42.2773346 146.982545,42.032 C146.646544,41.7866654 146.222548,41.664 145.710545,41.664 Z M151.511273,40.064 L154.871273,40.064 L154.871273,41.216 L155.159273,41.216 C155.308607,40.7786645 155.561937,40.4400012 155.919273,40.2 C156.276608,39.9599988 156.705937,39.84 157.207273,39.84 C157.99661,39.84 158.63127,40.0879975 159.111273,40.584 C159.591275,41.0800025 159.831273,41.8346616 159.831273,42.848 L159.831273,43.2 L157.751273,43.392 L157.751273,43.168 C157.751273,42.7306645 157.639274,42.3813346 157.415273,42.12 C157.191271,41.8586654 156.855275,41.728 156.407273,41.728 C155.95927,41.728 155.607274,41.8826651 155.351273,42.192 C155.095271,42.5013349 154.967273,42.9439971 154.967273,43.52 L154.967273,46.08 L156.791273,46.08 L156.791273,48 L151.319273,48 L151.319273,46.08 L152.951273,46.08 L152.951273,41.984 L151.511273,41.984 L151.511273,40.064 Z M161.2,40.064 L163.376,40.064 L165.248,47.04 L165.536,47.04 L167.408,40.064 L169.584,40.064 L167.312,48 L163.472,48 L161.2,40.064 Z M171.768727,46.08 L174.456727,46.08 L174.456727,41.984 L171.960727,41.984 L171.960727,40.064 L176.472727,40.064 L176.472727,46.08 L178.776727,46.08 L178.776727,48 L171.768727,48 L171.768727,46.08 Z M176.968727,37.712 C176.968727,37.9253344 176.928728,38.1253324 176.848727,38.312 C176.768727,38.4986676 176.659394,38.658666 176.520727,38.792 C176.38206,38.925334 176.219395,39.0319996 176.032727,39.112 C175.84606,39.1920004 175.651395,39.232 175.448727,39.232 C175.235393,39.232 175.038061,39.1920004 174.856727,39.112 C174.675393,39.0319996 174.515394,38.925334 174.376727,38.792 C174.23806,38.658666 174.128728,38.4986676 174.048727,38.312 C173.968727,38.1253324 173.928727,37.9253344 173.928727,37.712 C173.928727,37.4986656 173.968727,37.2986676 174.048727,37.112 C174.128728,36.9253324 174.23806,36.765334 174.376727,36.632 C174.515394,36.498666 174.675393,36.3920004 174.856727,36.312 C175.038061,36.2319996 175.235393,36.192 175.448727,36.192 C175.651395,36.192 175.84606,36.2319996 176.032727,36.312 C176.219395,36.3920004 176.38206,36.498666 176.520727,36.632 C176.659394,36.765334 176.768727,36.9253324 176.848727,37.112 C176.928728,37.2986676 176.968727,37.4986656 176.968727,37.712 Z M189.233454,45.088 C189.05212,46.0266714 188.622791,46.7839971 187.945454,47.36 C187.268118,47.9360029 186.364127,48.224 185.233454,48.224 C184.646785,48.224 184.100124,48.1333342 183.593454,47.952 C183.086785,47.7706658 182.64679,47.509335 182.273454,47.168 C181.900119,46.826665 181.606789,46.4053358 181.393454,45.904 C181.18012,45.4026642 181.073454,44.8320032 181.073454,44.192 L181.073454,44 C181.073454,43.3599968 181.18012,42.7840026 181.393454,42.272 C181.606789,41.7599974 181.902786,41.3226685 182.281454,40.96 C182.660123,40.5973315 183.102785,40.320001 183.609454,40.128 C184.116124,39.935999 184.657451,39.84 185.233454,39.84 C186.342793,39.84 187.241451,40.1279971 187.929454,40.704 C188.617458,41.2800029 189.05212,42.0373286 189.233454,42.976 L187.249454,43.488 C187.185454,43.0186643 186.982789,42.613335 186.641454,42.272 C186.300119,41.930665 185.820124,41.76 185.201454,41.76 C184.913453,41.76 184.641456,41.8133328 184.385454,41.92 C184.129453,42.0266672 183.905455,42.1786657 183.713454,42.376 C183.521453,42.5733343 183.369455,42.8133319 183.257454,43.096 C183.145454,43.3786681 183.089454,43.6959982 183.089454,44.048 L183.089454,44.144 C183.089454,44.4960018 183.145454,44.8079986 183.257454,45.08 C183.369455,45.3520014 183.521453,45.5786658 183.713454,45.76 C183.905455,45.9413342 184.129453,46.0773329 184.385454,46.168 C184.641456,46.2586671 184.913453,46.304 185.201454,46.304 C185.820124,46.304 186.292119,46.1493349 186.617454,45.84 C186.942789,45.5306651 187.153454,45.1146693 187.249454,44.592 L189.233454,45.088 Z M193.130182,44.688 C193.140848,44.9226678 193.196848,45.1386657 193.298182,45.336 C193.399515,45.5333343 193.538181,45.7039993 193.714182,45.848 C193.890183,45.9920007 194.092847,46.1039996 194.322182,46.184 C194.551516,46.2640004 194.79418,46.304 195.050182,46.304 C195.551517,46.304 195.935514,46.2160009 196.202182,46.04 C196.46885,45.8639991 196.660848,45.6533346 196.778182,45.408 L198.506182,46.368 C198.410181,46.5706677 198.276849,46.7813322 198.106182,47 C197.935514,47.2186678 197.714183,47.4186658 197.442182,47.6 C197.17018,47.7813342 196.839517,47.9306661 196.450182,48.048 C196.060846,48.1653339 195.604851,48.224 195.082182,48.224 C194.484845,48.224 193.940851,48.128001 193.450182,47.936 C192.959513,47.743999 192.535517,47.4666685 192.178182,47.104 C191.820847,46.7413315 191.543516,46.2986693 191.346182,45.776 C191.148847,45.2533307 191.050182,44.6613366 191.050182,44 L191.050182,43.904 C191.050182,43.295997 191.154181,42.7413358 191.362182,42.24 C191.570183,41.7386642 191.855513,41.3120018 192.218182,40.96 C192.58085,40.6079982 193.004846,40.3333343 193.490182,40.136 C193.975517,39.9386657 194.495512,39.84 195.050182,39.84 C195.732852,39.84 196.319513,39.9599988 196.810182,40.2 C197.300851,40.4400012 197.70618,40.7439982 198.026182,41.112 C198.346183,41.4800018 198.580848,41.8853311 198.730182,42.328 C198.879516,42.7706689 198.954182,43.1999979 198.954182,43.616 L198.954182,44.688 L193.130182,44.688 Z M195.034182,41.664 C194.522179,41.664 194.106183,41.7946654 193.786182,42.056 C193.46618,42.3173346 193.258182,42.618665 193.162182,42.96 L196.906182,42.96 C196.842181,42.5866648 196.642183,42.2773346 196.306182,42.032 C195.97018,41.7866654 195.546184,41.664 195.034182,41.664 Z M213.099636,43.776 L213.099636,48 L210.987636,48 L210.987636,36.8 L215.371636,36.8 C215.947639,36.8 216.448967,36.8933324 216.875636,37.08 C217.302305,37.2666676 217.656968,37.5119985 217.939636,37.816 C218.222304,38.1200015 218.435635,38.4666647 218.579636,38.856 C218.723637,39.2453353 218.795636,39.6426646 218.795636,40.048 L218.795636,40.432 C218.795636,40.8480021 218.723637,41.255998 218.579636,41.656 C218.435635,42.056002 218.222304,42.4133318 217.939636,42.728 C217.656968,43.0426682 217.302305,43.295999 216.875636,43.488 C216.448967,43.680001 215.947639,43.776 215.371636,43.776 L213.099636,43.776 Z M213.099636,41.76 L215.163636,41.76 C215.632972,41.76 216.003635,41.6320013 216.275636,41.376 C216.547638,41.1199987 216.683636,40.7893354 216.683636,40.384 L216.683636,40.192 C216.683636,39.7866646 216.547638,39.4560013 216.275636,39.2 C216.003635,38.9439987 215.632972,38.816 215.163636,38.816 L213.099636,38.816 L213.099636,41.76 Z M220.900363,46.08 L223.684363,46.08 L223.684363,38.72 L220.996363,38.72 L220.996363,36.8 L225.700363,36.8 L225.700363,46.08 L228.292363,46.08 L228.292363,48 L220.900363,48 L220.900363,46.08 Z M235.949091,46.848 C235.735756,47.3493358 235.437093,47.703999 235.053091,47.912 C234.669089,48.120001 234.221093,48.224 233.709091,48.224 C233.229088,48.224 232.778426,48.1333342 232.357091,47.952 C231.935755,47.7706658 231.565092,47.5040018 231.245091,47.152 C230.925089,46.7999982 230.671758,46.3733358 230.485091,45.872 C230.298423,45.3706642 230.205091,44.8000032 230.205091,44.16 L230.205091,43.904 C230.205091,43.2746635 230.295756,42.7093358 230.477091,42.208 C230.658425,41.7066642 230.903756,41.2800018 231.213091,40.928 C231.522426,40.5759982 231.882422,40.3066676 232.293091,40.12 C232.703759,39.9333324 233.143755,39.84 233.613091,39.84 C234.178427,39.84 234.634422,39.935999 234.981091,40.128 C235.327759,40.320001 235.602423,40.6186646 235.805091,41.024 L236.093091,41.024 L236.093091,40.064 L238.109091,40.064 L238.109091,45.6 C238.109091,45.9200016 238.253089,46.08 238.541091,46.08 L238.845091,46.08 L238.845091,48 L237.469091,48 C237.106422,48 236.810425,47.8933344 236.581091,47.68 C236.351756,47.4666656 236.237091,47.189335 236.237091,46.848 L235.949091,46.848 Z M234.157091,46.304 C234.74376,46.304 235.213089,46.1093353 235.565091,45.72 C235.917092,45.3306647 236.093091,44.8000034 236.093091,44.128 L236.093091,43.936 C236.093091,43.2639966 235.917092,42.7333353 235.565091,42.344 C235.213089,41.9546647 234.74376,41.76 234.157091,41.76 C233.570421,41.76 233.101092,41.9546647 232.749091,42.344 C232.397089,42.7333353 232.221091,43.2639966 232.221091,43.936 L232.221091,44.128 C232.221091,44.8000034 232.397089,45.3306647 232.749091,45.72 C233.101092,46.1093353 233.570421,46.304 234.157091,46.304 Z M240.453818,40.064 L242.805818,40.064 L242.805818,36.8 L244.821818,36.8 L244.821818,40.064 L247.685818,40.064 L247.685818,41.984 L244.821818,41.984 L244.821818,45.6 C244.821818,45.9200016 244.965816,46.08 245.253818,46.08 L247.397818,46.08 L247.397818,48 L244.037818,48 C243.675149,48 243.379152,47.8826678 243.149818,47.648 C242.920483,47.4133322 242.805818,47.1146685 242.805818,46.752 L242.805818,41.984 L240.453818,41.984 L240.453818,40.064 Z M250.478545,40.064 L252.734545,40.064 L252.734545,38.432 C252.734545,37.973331 252.88921,37.5866682 253.198545,37.272 C253.50788,36.9573318 253.891876,36.8 254.350545,36.8 L257.582545,36.8 L257.582545,38.72 L255.182545,38.72 C254.894544,38.72 254.750545,38.8799984 254.750545,39.2 L254.750545,40.064 L257.870545,40.064 L257.870545,41.984 L254.750545,41.984 L254.750545,48 L252.734545,48 L252.734545,41.984 L250.478545,41.984 L250.478545,40.064 Z M268.183272,44.128 C268.183272,44.7893366 268.071274,45.3733308 267.847272,45.88 C267.623271,46.3866692 267.319274,46.8133316 266.935272,47.16 C266.551271,47.5066684 266.111275,47.7706658 265.615272,47.952 C265.11927,48.1333342 264.599275,48.224 264.055272,48.224 C263.51127,48.224 262.991275,48.1333342 262.495272,47.952 C261.99927,47.7706658 261.559274,47.5066684 261.175272,47.16 C260.791271,46.8133316 260.487274,46.3866692 260.263272,45.88 C260.039271,45.3733308 259.927272,44.7893366 259.927272,44.128 L259.927272,43.936 C259.927272,43.2853301 260.039271,42.7066692 260.263272,42.2 C260.487274,41.6933308 260.791271,41.2640018 261.175272,40.912 C261.559274,40.5599982 261.99927,40.2933342 262.495272,40.112 C262.991275,39.9306658 263.51127,39.84 264.055272,39.84 C264.599275,39.84 265.11927,39.9306658 265.615272,40.112 C266.111275,40.2933342 266.551271,40.5599982 266.935272,40.912 C267.319274,41.2640018 267.623271,41.6933308 267.847272,42.2 C268.071274,42.7066692 268.183272,43.2853301 268.183272,43.936 L268.183272,44.128 Z M264.055272,46.304 C264.343274,46.304 264.615271,46.2560005 264.871272,46.16 C265.127274,46.0639995 265.351271,45.9253342 265.543272,45.744 C265.735273,45.5626658 265.887272,45.3413346 265.999272,45.08 C266.111273,44.8186654 266.167272,44.5226683 266.167272,44.192 L266.167272,43.872 C266.167272,43.5413317 266.111273,43.2453346 265.999272,42.984 C265.887272,42.7226654 265.735273,42.5013342 265.543272,42.32 C265.351271,42.1386658 265.127274,42.0000005 264.871272,41.904 C264.615271,41.8079995 264.343274,41.76 264.055272,41.76 C263.767271,41.76 263.495274,41.8079995 263.239272,41.904 C262.983271,42.0000005 262.759273,42.1386658 262.567272,42.32 C262.375271,42.5013342 262.223273,42.7226654 262.111272,42.984 C261.999272,43.2453346 261.943272,43.5413317 261.943272,43.872 L261.943272,44.192 C261.943272,44.5226683 261.999272,44.8186654 262.111272,45.08 C262.223273,45.3413346 262.375271,45.5626658 262.567272,45.744 C262.759273,45.9253342 262.983271,46.0639995 263.239272,46.16 C263.495274,46.2560005 263.767271,46.304 264.055272,46.304 Z M269.888,40.064 L273.248,40.064 L273.248,41.216 L273.536,41.216 C273.685334,40.7786645 273.938665,40.4400012 274.296,40.2 C274.653335,39.9599988 275.082664,39.84 275.584,39.84 C276.373337,39.84 277.007997,40.0879975 277.488,40.584 C277.968002,41.0800025 278.208,41.8346616 278.208,42.848 L278.208,43.2 L276.128,43.392 L276.128,43.168 C276.128,42.7306645 276.016001,42.3813346 275.792,42.12 C275.567999,41.8586654 275.232002,41.728 274.784,41.728 C274.335997,41.728 273.984001,41.8826651 273.728,42.192 C273.471998,42.5013349 273.344,42.9439971 273.344,43.52 L273.344,46.08 L275.168,46.08 L275.168,48 L269.696,48 L269.696,46.08 L271.328,46.08 L271.328,41.984 L269.888,41.984 L269.888,40.064 Z M288.104727,48 L286.088727,48 L286.088727,42.432 C286.088727,42.2079989 286.032728,42.0400006 285.920727,41.928 C285.808726,41.8159994 285.662061,41.76 285.480727,41.76 C285.267393,41.76 285.099394,41.8239994 284.976727,41.952 C284.85406,42.0800006 284.792727,42.2719987 284.792727,42.528 L284.792727,48 L282.776727,48 L282.776727,42.432 C282.776727,42.2079989 282.715394,42.0400006 282.592727,41.928 C282.47006,41.8159994 282.323394,41.76 282.152727,41.76 C281.960726,41.76 281.800728,41.8239994 281.672727,41.952 C281.544726,42.0800006 281.480727,42.2719987 281.480727,42.528 L281.480727,48 L279.464727,48 L279.464727,40.064 L281.480727,40.064 L281.480727,40.832 L281.768727,40.832 C281.832727,40.5439986 281.979392,40.3066676 282.208727,40.12 C282.438061,39.9333324 282.739392,39.84 283.112727,39.84 C283.464729,39.84 283.763392,39.9333324 284.008727,40.12 C284.254062,40.3066676 284.419393,40.5439986 284.504727,40.832 L284.792727,40.832 C284.878061,40.5439986 285.056726,40.3066676 285.328727,40.12 C285.600728,39.9333324 285.939392,39.84 286.344727,39.84 C286.878063,39.84 287.304725,40.0186649 287.624727,40.376 C287.944729,40.7333351 288.104727,41.2266635 288.104727,41.856 L288.104727,48 Z" id="Dashboard-Copy"></path>
                </g>
            </g>
        </g>
    </g>
</svg>