<?xml version="1.0" encoding="UTF-8"?>
<svg width="59px" height="88px" viewBox="0 0 59 88" version="1.1" xmlns="http://www.w3.org/2000/svg" xmlns:xlink="http://www.w3.org/1999/xlink">
    <!-- Generator: Sketch 52.5 (67469) - http://www.bohemiancoding.com/sketch -->
    <title>noun_scroll down_2047489</title>
    <desc>Created with Sketch.</desc>
    <g id="Page-1" stroke="none" stroke-width="1" fill="none" fill-rule="evenodd">
        <g id="noun_scroll-down_2047489" fill="#f3b213">
            <path d="M32,87.7 L26.8,87.7 C12.2,87.7 0.3,75.8 0.3,61.2 L0.3,26.9 C0.3,12.3 12.2,0.4 26.8,0.4 L32,0.4 C46.6,0.4 58.5,12.3 58.5,26.9 L58.5,61.2 C58.5,75.8 46.6,87.7 32,87.7 Z M26.8,5.4 C15,5.4 5.3,15 5.3,26.9 L5.3,61.2 C5.3,73.1 15,82.7 26.8,82.7 L32,82.7 C43.9,82.7 53.5,73 53.5,61.2 L53.5,26.9 C53.5,15 43.8,5.4 32,5.4 L26.8,5.4 Z" id="Shape" fill-rule="nonzero"></path>
            <path d="M41.8,46.7 C40.9,45.7 39.3,45.7 38.3,46.7 L31.9,53.7 L31.9,28.3 C31.9,26.9 30.8,25.8 29.4,25.8 C28,25.8 26.9,26.9 26.9,28.3 L26.9,53.8 L20.5,46.8 C19.6,45.8 18,45.8 17,46.8 C16.2,47.7 16.2,49.1 17,50 L27.6,61.7 C28.5,62.7 30.1,62.7 31.1,61.7 L41.8,50 C42.6,49 42.6,47.6 41.8,46.7 Z" id="Path"></path>
        </g>
    </g>
</svg>
