<?xml version="1.0" standalone="no"?>
<!DOCTYPE svg PUBLIC "-//W3C//DTD SVG 1.1//EN" "http://www.w3.org/Graphics/SVG/1.1/DTD/svg11.dtd">
<svg xmlns="http://www.w3.org/2000/svg">
<metadata>Generated by Fontastic.me</metadata>
<defs>
<font id="everstake-icon-font" horiz-adv-x="512">
<font-face font-family="everstake-icon-font" units-per-em="512" ascent="480" descent="-32"/>
<missing-glyph horiz-adv-x="512" />

<glyph glyph-name="waves" unicode="&#66;" d="M150 280c2-2 18-16 38 5 23 25 39 38 41 41 2 2 9 9 20 11 9 0 18-2 27-11 21-19 50-46 50-48 0 0 3-5 11-5 7 0 14 3 21 10 18 18 52 52 70 72l-149 145c-18 16-44 16-61 0l-143-147z m344 12l-52 50-16-17c0 0-25-26-52-52-11-11-23-16-34-16-12 0-20 8-21 10-4 4-31 29-50 47-6 5-11 7-17 7-5 0-10-5-10-5 0 0-16-13-42-40-10-11-21-16-32-16-16 0-27 11-27 11l-71 71-54-55c-16-18-16-45 0-61l213-208c18-16 45-16 61 0l208 213c14 17 14 45-4 61z"/>
<glyph glyph-name="algorand" unicode="&#97;" d="M300 495l72-1 33-118 73 0-52-92 75-267-75 0-46 178-108-178-84 0 159 267-22 112-214-379-88 0z"/>
<glyph glyph-name="ark" unicode="&#98;" d="M0 51l256 410 256-410-256 260z m213 156l44 49 42-49z m-68-68l42 39 148 0 42-39z"/>
<glyph glyph-name="cardano" unicode="&#67;" d="M442 236c-11 0-20 9-20 20 0 11 9 20 20 20 11 0 20-9 20-20 0-11-9-20-20-20z m60 10c-6 0-10 5-10 10 0 6 4 10 10 10 6 0 10-4 10-10 0-5-4-10-10-10z m-125-86c-9 6-12 18-6 27 6 9 18 12 28 6 9-6 12-18 6-27-6-9-18-12-28-6z m73-25c-5 3-6 9-3 13 3 5 9 6 14 3 4-3 6-9 3-13-3-5-10-6-14-3z m-209-39c0 11 9 20 20 20 11 1 20-8 20-19 1-11-8-20-19-21-11 0-20 9-21 20z m10-69c0 5 4 10 10 10 5 0 10-4 10-10 0-5-4-10-10-10-5 0-10 4-10 10z m-128 158c9 7 21 4 28-5 6-9 3-22-6-28-9-6-22-3-28 6-6 9-3 21 6 27z m-55-54c5 3 11 2 14-2 3-5 2-11-2-14-5-3-11-2-14 2-3 5-2 11 2 14z m76 218c10-5 14-17 9-27-5-10-17-14-27-9-10 5-14 17-9 27 5 10 17 14 27 9z m-76 22c5-2 7-8 4-13-2-5-8-7-13-5-5 3-7 9-5 14 3 5 9 7 14 4z m213 24c0-11-9-20-20-19-11 0-20 9-20 20 0 11 9 19 20 19 11 0 20-9 20-20z m-10 90c0-6-5-10-10-10-6 0-10 5-10 10 0 6 4 10 10 10 5 0 10-5 10-10z m131-176c-9-6-22-5-29 4-6 9-5 21 4 28 9 6 21 5 28-4 7-8 5-21-3-28z m60 55c-5-4-11-3-15 1-3 5-2 11 2 14 5 4 11 3 14-1 4-5 3-11-1-14z m-111-148c-22 0-40 18-40 40 0 22 18 40 40 40 22 0 40-18 40-40 0-22-18-40-40-40z m-10-137c-5 10-2 22 7 28 10 5 22 2 28-7 5-10 2-22-7-27-10-6-22-3-28 6z m40-46c-3 5-2 11 3 14 5 3 11 1 14-4 3-4 1-10-4-13-4-3-10-1-13 3z m-110 118c-11 19-5 44 14 55 19 11 44 5 55-14 12-19 5-43-14-54-19-12-43-5-55 13z m-116-52c5 10 17 14 27 8 10-5 13-17 8-27-5-9-17-13-27-8-10 6-13 18-8 27z m-20-57c3 5 9 7 14 4 5-2 6-8 4-13-3-5-9-7-14-4-5 2-7 8-4 13z m47 149c10 20 35 27 54 16 20-10 27-34 16-54-10-19-35-26-54-16-20 11-27 35-16 54z m-112 75c11 0 20-9 20-20 1-11-8-20-19-20-11 0-21 8-21 19 0 11 9 21 20 21z m-60-11c5 0 10-5 10-10 0-6-4-10-10-10-5 0-10 4-10 9 0 6 4 10 10 11z m150 30c23 1 41-17 41-39 1-22-17-40-39-40-22-1-41 17-41 39 0 22 17 40 39 40z m13 137c6-9 3-21-6-27-10-6-22-3-28 7-6 9-3 21 7 27 9 6 22 3 27-7z m-39 46c2-4 1-11-4-13-5-3-11-2-14 3-2 5-1 11 4 14 5 2 11 1 14-4z m114-119c11-19 5-43-14-55-19-11-43-5-55 14-11 19-5 43 14 55 19 11 43 5 55-14z m128 54c-6-9-18-12-28-7-9 6-12 18-7 27 6 10 18 13 28 8 9-6 12-18 7-28z m22 57c-3-5-9-7-14-4-5 3-7 9-4 14 3 5 9 6 14 3 5-2 6-8 4-13z m-58-151c-11-18-36-25-55-14-19 11-25 36-14 55 11 19 36 25 55 14 19-11 25-36 14-55z"/>
<glyph glyph-name="casperlabs" unicode="&#99;" d="M455 178c-1-33-10-63-27-88-16-26-39-46-69-60-29-14-63-21-101-21-63 0-112 21-148 62-36 41-54 99-54 174l0 24c0 47 8 88 24 123 17 35 40 63 71 82 30 19 65 29 106 29 58 0 104-16 139-46 35-31 55-73 60-127l-115 0c0 29-8 50-21 63-14 13-35 19-63 19-29 0-50-11-63-32-14-22-21-56-21-103l0-34c0-52 6-88 19-110 13-22 35-33 66-33 26 0 47 6 61 19 14 12 21 32 22 59z"/>
<glyph glyph-name="cosmos" unicode="&#68;" d="M302 240l24 16-24 16c0-1 0-1 0-2 0-9 0-19 0-30z m-95 32l-24-16 24-15z m84-49l-27-16 26-13z m-47-16l-27 16 2-29z m47 82l-1 29-26-13 27-16z m-72 29l-2-29 27 16z m73-62c0 7 0 13 0 20 0 1-1 2-2 3-11 6-23 13-34 19-1 1-2 1-3 0-12-6-23-13-34-19-2-1-2-2-2-3 0-13 0-26 0-39 0-2 0-3 2-4 11-6 22-13 34-19 1-1 2-1 3 0 11 6 23 13 34 19 1 1 2 2 2 4 0 6 0 13 0 19z m-201 105c-3-1-7-1-10-2-2 0-3-2-2-4 1-3 2-6 4-9 7-12 16-22 26-32 1 0 2 0 3 0 6 3 12 2 17-2 4-4 6-10 4-16-1-2-1-2 1-3 13-10 26-20 39-30 1 0 2-1 3 0 10 6 20 13 30 20 1 0 1 1 1 1 1 12 2 25 2 37 0 1 0 2-1 2-26 12-52 23-79 31-12 3-25 6-38 7z m129-177c0-3 0-7 0-10 2-13 4-27 5-40 1-1 1-2 2-2 7-2 11-6 12-12 1-6-1-11-6-15-1-1-2-1-1-3 3-10 5-20 9-29 2-6 5-11 8-16 4-5 7-5 10 0 3 4 6 8 8 13 7 17 12 35 14 54 3 19 6 39 8 58 0 2 0 2-1 3-11 5-21 10-31 16-2 1-3 1-5 0-2-2-5-3-7-4-9-4-17-9-25-13z m114 78c18 12 35 26 52 40 13 11 26 23 36 37 3 4 5 9 7 14 2 4 1 6-3 7-6 1-12 1-17 0-13-1-24-4-36-8-2 0-2-1-3-3-2-11-15-16-24-8-1 1-2 1-4 0-13-6-27-12-41-18-2 0-2-1-2-3 1-12 2-23 2-35 0-1 1-2 1-2 11-7 22-14 32-21z m-33-37c0-11-1-22-2-33 0-1 0-2 2-3 22-10 44-20 67-27 15-5 30-9 46-10 4 0 9 0 14 1 2 0 3 2 2 4-1 3-2 7-4 10-6 10-14 19-23 27-20 21-44 39-67 55-2 1-3 1-4 0-9-6-18-12-27-17-3-2-5-4-4-7z m-126 25c-2-1-4-2-5-3-23-16-45-33-65-53-8-8-16-17-22-27-2-3-3-6-4-9-1-3 0-4 2-5 4-1 7-1 10-1 11 0 22 2 33 5 29 8 57 19 84 32 1 1 1 2 1 3 0 10-1 21-1 31 0 5-2 7-6 10-9 5-18 11-27 17z m45 79c11-6 22-12 33-18 1 0 2 0 3 0 11 6 21 11 32 16 1 1 1 2 1 3-1 7-1 15-2 22-3 21-6 42-11 63-3 12-7 24-13 34-1 3-4 6-6 9-2 2-3 2-5 0-3-4-6-7-8-11-5-9-8-20-11-30-7-29-11-59-13-88z m-54-73c-4 3-8 6-12 9-9 7-18 14-27 21-1 1-2 1-4 0-11-3-21 6-19 17 0 2 0 3-1 4-11 10-21 21-29 34-3 5-5 9-5 15 0 6 3 10 8 12 5 2 10 2 15 2 13 0 27-3 40-7 26-7 50-17 74-29 2 0 3-1 4-1 1 3 1 6 1 10 2 12 3 24 5 37 2 16 6 31 10 46 3 10 6 20 12 29 2 4 4 7 7 10 6 5 13 5 18 0 6-5 9-12 12-18 6-14 10-29 13-43 3-13 5-26 7-38 1-11 2-22 3-32 0 0 0-1 1-1 4 2 7 3 11 5 10 4 19 8 29 12 1 1 2 1 2 3 0 7 4 11 10 13 6 2 11 1 16-4 1-1 2-1 3-1 12 4 23 7 35 8 8 1 15 2 23 0 10-2 14-9 11-18-3-8-7-15-12-21-12-16-27-29-42-41-14-12-28-22-42-33 0 0 0-1 1-1 19-13 38-28 56-44 11-11 23-22 32-35 3-5 6-10 7-16 2-8-2-14-10-17-7-1-14-1-20 0-33 4-63 16-93 29-6 2-12 5-17 7-1-3-1-6-2-10-1-10-2-19-3-29-2-14-5-28-8-42-3-13-7-25-13-37-2-5-5-10-9-13-6-6-13-6-19 0-6 6-10 13-13 21-4 11-7 21-10 31 0 2-1 2-2 3-5 2-9 6-10 11-1 5 1 11 5 14 1 2 1 3 1 4-2 14-3 27-5 40 0 2-1 5-1 8-3-2-5-3-8-4-24-11-49-21-75-28-11-3-21-6-33-6-4 0-9 0-13 1-10 2-14 9-11 19 2 8 7 14 12 21 12 15 26 28 42 41 13 11 27 21 41 31l1 1z m114 0c0-14-12-25-26-25-14 0-25 11-25 25 0 14 11 25 25 25 14 0 26-11 26-25z m-24 237c-32 0-63-6-92-19-28-12-54-29-76-50-21-22-39-48-50-76-13-29-19-60-19-92 0-32 6-63 19-92 11-28 29-54 50-76 22-21 48-38 76-50 29-13 60-19 92-19 32 0 63 6 92 19 28 12 54 29 76 50 21 22 39 48 50 76 13 29 19 60 19 92 0 32-6 63-19 92-11 28-29 54-50 76-22 21-48 38-76 50-29 13-60 19-92 19z m-95-463c-30 12-56 30-78 53-23 22-41 49-53 78-13 30-19 62-19 95 0 33 6 65 19 95 12 29 30 56 53 78 22 23 48 41 78 53 30 13 62 19 95 19 33 0 65-6 95-19 30-12 56-30 78-53 23-22 41-49 53-78 13-30 19-62 19-95 0-33-6-65-19-95-12-29-30-56-53-78-22-23-48-41-78-53-30-13-62-19-95-19-33 0-65 6-95 19z"/>
<glyph glyph-name="daobet" unicode="&#100;" d="M259 275l0 0c7-12 7-26 0-38-3-6-8-11-14-14-6-3-13-5-20-5l-93 0 9 14 23 0-24 35-32-49-16 0 39 60-49 0c1-1 2-3 3-4 7-12 7-26 0-38-4-5-9-10-14-13-7-3-13-5-20-5l-40 0 0 41 15 0 0-27 25 0c6 0 12 2 17 7 4 4 7 10 7 16 0 6-3 12-7 17-5 4-11 6-17 6l-40 0 0 14 129 0 40-60 45 0c1 0 1 0 1 0 13 0 23 11 23 24 0 0 0 1 0 1-1 13-11 24-24 23-13 0-24-11-23-24 0-2 0-4 0-6l-15 0c0 2 0 4 0 6 0 7 1 13 5 19 3 6 8 11 14 14 12 6 27 6 39 0 6-3 11-8 14-14z m79-27c4 0 7-3 7-7 0-4-3-7-7-7l-23 0 0 14z m5 21c0-4-3-7-7-7l-21 0 0 14 21 0c4 0 7-3 7-7z m-104 38l273 0 0-102-272 0c4 1 8 3 12 5 8 4 15 11 20 19l0 0c9 17 9 37 0 53l0 1c-5 8-12 15-20 19l0 0c-4 2-8 4-13 5z m99-89c13 0 23 10 23 23 0 6-3 11-8 15 4 3 6 8 6 14 0 12-10 22-22 22l-38 0 0-74z m153 58l0 0 0 16-119 0 0-74 59 0 0 16-43 0 0 13 31 0 0 16-31 0 0 13 61 0 0-58 16 0 0 58z"/>
<glyph glyph-name="decred" unicode="&#101;" d="M208 135l78-69-126 0c-89 0-160 70-160 157 0 65 42 123 101 145l-99 87 114-2 87-75 84-73-124 0c-48 0-87-38-87-85 0-48 39-85 87-85z m96 250l-78 70 126 0c89 0 160-72 160-161 0-66-42-125-101-148l99-89-114 2-87 77-84 75 124 0c48 0 87 38 87 87 0 48-39 87-87 87z"/>
<glyph glyph-name="dash" unicode="&#102;" d="M23 188l4 28 68 3c0 0 26 4 30 37 2 21-2 31-2 31 0 0-9 9-37 9-27 0-45 0-45 0l4 28 75 0c0 0 37-2 39-40 2-35-4-67-36-89-14-9-100-7-100-7z m-23 45l0 3c2 29 15 31 15 31 0 0 66 0 76 0-5-31-20-34-20-34z m189 43c0 0 7 14 52 14 40 0 43 0 43 0l-15-102-71 0c0 0-25 2-27 35-2 34 18 53 18 53z m52-62l7 50-23 0c0 0-13-2-18-14-4-12-2-24-2-24 0 0 0-12 14-12 13 0 22 0 22 0z m55-26l4 26 54 0c0 0 7 0 7 5 0 4-2 7-7 7-9 0-30 0-30 0 0 0-24 2-21 24 2 21 7 23 14 31 7 7 18 9 18 9l63 0-4-26-49 0c0 0-7 0-7-7 0-3 1-5 7-5 11 0 28 0 28 0 0 0 28-9 16-43-7-19-26-21-26-21z m102 0l26 136 35 0-5-35 30 0c0 0 30-5 28-28-2-31-9-73-9-73l-35 0 7 59c0 0 2 9 0 11-5 5-26 3-28 3 0 7-12-73-12-73z"/>
<glyph glyph-name="elixxir" unicode="&#103;" d="M351 85l0-75c-26 0-51 5-76 14-25 10-46 23-66 41-19 19-34 40-44 65-45-40-89-80-134-120-1 1-1 2-1 3 0 31 0 63 0 94 0 2 1 4 3 5 23 20 46 41 69 62 16 14 31 27 46 41 1 0 1 1 2 2-2 5-4 11-7 16-10 21-26 36-47 47-15 8-31 14-48 16-5 0-10 0-15 1-1 0-2 0-3 0l0 74c4 0 7 1 11 0 23-1 46-5 67-14 37-15 68-38 90-71 16-22 25-46 29-73 1-6 1-13 1-20 0-28 11-52 31-72 18-18 40-28 65-33 8-2 17-3 25-3 1 0 1 0 2 0z m131 130l0-74c-37 0-71 8-103 26-32 18-57 43-75 76-15-14-30-27-45-40-2 14-5 27-9 40-4 13-10 25-17 37 2 1 3 3 4 4 15 13 30 26 45 39 1 2 2 3 2 5-2 15-6 28-13 41-13 21-31 36-52 46-18 8-36 12-55 12-1 0-2 0-3 0l0 75c3 0 6 0 9 0 28-1 54-7 79-19 36-16 65-41 85-75 12-20 20-41 23-64 1-6 2-13 1-19 0-33 14-59 39-80 16-14 36-23 57-27 9-2 17-3 26-3 0 0 1 0 2 0z m-93 106c0 30-6 57-18 83 37 33 73 65 110 98 1-1 1-3 1-4 0-16 0-33 0-50 0-14 0-27 0-41 0-2-1-4-2-5-30-26-59-52-88-78-1-1-2-2-3-3z"/>
<glyph glyph-name="eos" unicode="&#104;" d="M234 130l-40 127 64 114 64-114-40-127z m16 260l-63-112-21 67 84 116z m-91-74l18-57-49-87z m191 29l-21-67-63 112 0 71z m38-173l-48 87 18 56z m-205 66l34-108-95 0z m116-108l34 108 61-108z m135-5c0-3 0-7-1-10 0-2-1-4-2-6-1-3-3-5-6-7l-8-6-145-92c-4-2-9-4-14-4l0 0c-5 0-10 1-14 4l-150 95c-4 3-7 6-9 11-1 1-2 3-2 5-1 3-1 7-1 11 1 0 1 1 1 1l48 225c1 4 3 7 5 10l101 139c5 7 12 11 21 11l1 0c8 0 16-4 21-11l100-139c2-3 4-6 5-10l49-225c0 0 0-1 0-2z m-19-7c1 2 1 5 0 8l-48 222c-1 1-1 2-2 3l-101 139c0 1-1 1-1 2-1 0-2 0-2 1-1 0-2 0-3 0-1 0-1 0-2 0-1-1-2-1-3-1 0-1-1-1-1-2l-101-139c0 0 0-1-1-1l0 0c0-1 0-1 0-2l-49-225 0 0c0-1 0-2 0-3 0-1 0-2 1-2 1-1 1-2 3-3l149-95c0 0 1 0 1-1 1 0 2 0 3 0 1 0 2 0 3 0 0 0 1 1 1 1l149 94c1 1 3 2 4 4z m-176-4l38 0-19-61z m33-69l22 69 86 0z m-136 69l86 0 22-69z"/>
<glyph glyph-name="eth" unicode="&#69;" d="M262 2l157 219-157-92z m0 149l155 91-155 68z m-6 159l0-159-154 90z m6 7l154-68-154 254z m-6 185l0-185-155-70z m0-373l0-125-158 217z m-158 114l0 1 1-1z"/>
<glyph glyph-name="etherzero" unicode="&#105;" d="M355 337l84-84-83-83-101-170-100 170-82 83 85 85 98 165z m19-32l31-54-29-48 50 50z m-239-102l-28 48 32 55-53-53z m193 160l-72 122-71-120 70 70z m19-32l-92 91-89-89-48-82 45-76 92-93 93 93 46 76z m-18-189l-74-74-73 74 73-123z m-67 165l58-61-58-58-61 59z"/>
<glyph glyph-name="harmony" unicode="&#106;" d="M395 501c59 0 107-47 107-106l0-280c-1-57-48-104-107-104-58 0-106 47-107 104l0 120c-11-1-22-1-34-1-12 0-23-1-34-2l0-117c-1-57-49-104-107-104-59 0-106 47-107 104l0 280c1 58 48 105 107 105 58 0 106-47 107-105l0-119c11 1 22 1 34 1 12 0 23 0 34 1l0 117c0 59 48 106 107 106m-282-43c-35 0-63-28-63-63l0-170c10 8 22 15 35 21 29 12 60 21 91 25l0 124c0 35-28 63-63 63m63-343l0 113c-25-4-50-12-73-22-34-14-54-38-54-63l0-28c0-34 29-62 64-62 35 0 63 28 63 62m219-62c35 0 63 28 63 62l0 171c-11-9-22-16-35-21-29-13-60-21-91-26l0-124c0-34 28-62 63-62m10 251c34 15 53 38 53 63l0 28c0 35-28 63-63 63-35 0-63-28-63-63l0-112c25 4 50 11 73 21"/>
<glyph glyph-name="icon" unicode="&#107;" d="M413 373l-53-53c12-20 18-42 18-64 0-68-55-123-122-123-24 0-46 7-65 18l-53-53c33-24 73-39 117-39 108 0 196 88 196 196 1 45-13 85-38 118m-280-117c0 68 55 123 123 123 23 0 45-7 64-18l53 53c-32 24-73 38-117 38-108 0-196-87-196-196 0-43 15-84 39-116l53 53c-12 18-19 40-19 63m319 245c27 0 49-22 49-49 0-27-22-49-49-49-27 0-49 22-49 49 0 27 22 49 49 49m-392-392c27 0 49-22 49-49 0-27-22-49-49-49-27 0-49 22-49 49 0 27 22 49 49 49"/>
<glyph glyph-name="iost" unicode="&#108;" d="M468 377l-211 125-213-125 0-243 213-124 211 124z m-209 39l150-86-40-23-110 62-77-45 42-26 23 14 38-22-20-15 24-14 20 14 37-23-17-16 91-50-161-95-165 97 0 47 165-95 78 46-52 30-20-12-33 21 15 11-26 16-14-10-39 24 14 9-81 49z"/>
<glyph glyph-name="iotex" unicode="&#109;" d="M11 193l0 126 27 0 0-126z m103 0c-28 0-49 22-49 49 0 27 21 50 49 50 29 0 49-22 49-50 0-26-21-49-49-49z m0 18c19 0 31 14 31 32 0 17-13 31-31 31-19 0-31-14-31-31 0-17 13-32 31-32z m109-18l0 105-42 0 0 21 108 0 0-21-42 0 0-105z m113 0c-27 0-47 20-47 50 0 27 18 49 45 49 29 0 44-24 44-51 0-1 0-5 0-6l-68 0c2-15 13-24 26-24 11 0 18 4 25 11l13-11c-9-11-21-18-38-18z m-30 54l54 0c-2 15-11 27-26 27-15 0-25-11-28-27z m90-54l45 64-43 62 25 0 31-45 31 45 25 0-43-62 45-64-26 0-32 48-33-48z"/>
<glyph glyph-name="irisnet" unicode="&#110;" d="M158 142l-115-11c10 20 26 55 40 90 10 22 20 45 28 62l-69 93c22 2 60 7 97 12 26 3 51 6 70 8l45 105c13-19 36-49 58-79l0 0c16-21 31-41 42-56l112 8c-10-20-26-55-42-89-9-19-18-39-26-54l65-100c-11-1-26-3-42-6-39-5-89-12-123-16-1 0-1 0-1 0l-44-98c-13 19-36 50-58 80-13 19-26 37-37 51z m26 4c7-9 14-19 22-29 16-21 34-44 43-57l21 50c-29 5-43 23-53 35l0 0-8 10c-8-5-17-8-25-9z m94-17l1 2 27 0c0 0 0-1 0-1 23 3 58 9 86 14 15 2 27 4 36 6l-55 71c-4 5-10 11-18 17l-39-86c-14 19-40 54-65 87-26-4-52-8-67-10l57-74 0-1c7-8 17-21 37-25z m91 213c12-30 6-61-1-75l-3-6c6-4 12-8 17-12 4 10 9 22 14 33 11 25 22 51 29 65z m-170 30c-12-2-27-4-42-6l0 0c-27-5-55-9-71-11l38-48c20 27 51 37 67 37l3 1c0 10 3 19 5 27z m18-25l98 8c-9-23-28-65-45-104 6-8 13-16 19-23 9-12 17-22 23-29l33 84c7 12 12 42-7 67-8 11-22 28-36 46-17 21-34 43-44 56l-35-87 0-1c-2-4-4-10-6-17z m35-84c4 11 8 21 12 31 5 14 10 26 13 34l-89-11c-14 0-42-10-54-38-6-13-14-34-23-55l0 0c-10-25-21-51-27-65l93 11 0 0c5 0 12 1 18 4l-56 75c23 3 61 8 98 12 5 1 10 2 15 2z m181 125c-35 47-88 80-150 88-3 6-7 13-11 20 76-5 142-46 182-106z m28-49c3 6 7 13 11 20 15-31 23-66 23-104 0-38-9-74-24-107l-13 18c12 27 19 58 19 89 0 30-6 58-16 84z m-186-305c64 6 119 38 156 86 7 0 15 0 23 0-41-61-109-101-186-105z m-49 1c4-6 8-13 13-20-74 5-139 44-179 102l20 4c35-46 87-78 146-86z m-191 220c0-29 6-57 16-82-3-7-7-15-10-23-16 32-24 68-24 105 0 37 8 72 22 103l13-17c-11-26-17-55-17-86z m48 138c-7 0-15 0-24 0 40 57 104 97 178 102l-8-19c-59-8-111-38-146-83z"/>
<glyph glyph-name="kusama" unicode="&#111;" d="M37 113c-12-7-24-8-37-5 7 6 14 12 21 17 0 1 0 1-1 1l-11 0c0 1 0 1 0 2 51 28 102 56 153 84 0 0 0 1 0 1l-31 0c0 1 0 1 0 1 4 4 9 7 13 10 21 14 41 28 61 41 25 17 49 33 74 49 21 14 42 27 64 38 2 1 3 1 5 2 18 6 30 21 44 33 13 12 28 24 46 27 10 3 21 0 30-6 9-6 17-13 25-20 6-6 12-11 19-17-1-1-2-1-3-2-8-3-17-7-25-11-10-4-17-12-22-22-9-14-14-31-19-47-8-21-16-41-34-54-11-9-23-16-35-23-12-7-23-13-35-19-4-3-8-5-12-8-22-13-19-42-9-57 12-15 25-28 43-34 3-1 6-3 9-5 1-1 2-2 3-4-11 2-21 4-31 4-10 0-20-2-30-4 0 4 1 5 11 11-3 4-6 8-9 12-5 4-10 8-15 12-11 8-18 20-21 35 0 3-2 2-4 3-10 0-21 1-31 2-1 0-1 1-1 1 6 2 11 4 17 5 0 1 0 1 0 2-3 1-6 2-9 2-16 1-32-2-48-6-24-6-47-13-70-20-31-11-60-23-90-34-3-1-5-3-5 3"/>
<glyph glyph-name="nano" unicode="&#112;" d="M47 148c-20 0-36 16-36 36 0 20 16 36 36 36 19 0 35-16 35-36 0-20-16-36-35-36z m419 216c19 0 35-16 35-35 0-20-17-36-36-36-27 0-35-10-35-36l0-3c-1-18-16-34-34-34l-1 0c-26 0-34-10-34-36l0-3c-1-18-17-33-35-33-20 0-35 17-35 36 0 18 14 33 31 36 1 0 3 0 4 0 30 0 35 7 35 35l0 1c0 19 14 34 32 36l3 0c31 0 35 7 35 36 0 20 16 36 35 36z m-207-72c18-2 32-17 33-35 0-21-16-37-36-37-19 0-35 17-35 37 0 25-8 35-35 35-27 0-35-10-35-36l0-2c-1-18-16-34-35-34-20 0-35 17-35 37 0 19 14 34 32 35l3 0c30 0 35 7 35 36 0 20 16 36 35 36 20 0 35-17 35-36 0-29 5-36 35-36z"/>
<glyph glyph-name="near" unicode="&#113;" d="M259 315l145 167c5 6 9 10 14 12l0 1c8 4 17 6 26 6 30 0 55-25 57-57l0-376c0-32-26-57-56-57l-12 0c-17 0-33 7-44 20l-136 164-140-164c-11-12-26-20-43-20 0 0 0 0-1 0 0 0-1 0-2 0-31 0-56 25-56 56l0 377c0 32 25 57 56 57l11 0c17 0 33-7 44-20z m48-58l111-133 0 262z m-102-4l-112 135 0-265z"/>
<glyph glyph-name="nkn" unicode="&#115;" d="M271 166c10 56 28 95 56 117 27 22 66 29 117 21 5-33-8-66-39-99-31-33-76-46-134-39z m-153 190c47 33 88 47 123 43 36-5 70-28 102-71-20-27-53-41-99-41-46-1-88 23-126 69z m199 146c34-20 55-42 63-66 8-24 4-54-13-88-23 4-41 21-56 51-14 29-12 64 6 103z m-46-377c39 11 70 11 92 0 23-12 40-36 52-72-20-14-45-16-76-5-31 10-53 36-68 77z m-235 82c17 35 37 56 60 65 23 8 50 5 83-10-3-23-18-42-46-57-27-15-60-14-97 2z m153 285c29-1 50-8 63-21 13-12 19-32 19-59-16-5-34-1-52 13-19 14-29 36-30 67z m-133-410c0 27 5 48 16 61 11 12 29 20 54 21 5-15 2-32-10-51-12-18-32-29-60-31z m318 67c21 17 41 25 59 25 17 0 35-9 53-27-8-14-24-21-46-24-23-2-45 6-66 26z m-193-139c-32 47-46 88-42 124 5 35 28 69 71 102 27-21 41-54 41-100 0-46-23-88-70-126z"/>
<glyph glyph-name="ontology" unicode="&#116;" d="M495 33l-389 394c26 49 81 74 164 74 124 0 225-102 225-227 0-84 0-164 0-241z m-478 457l389-394c-26-49-81-74-164-74-124 0-225 102-225 228 0 83 0 163 0 240z"/>
<glyph glyph-name="pvx" unicode="&#117;" d="M75 446l0-10c0-83 0-166-1-249 0-16 4-30 14-41 11-13 23-26 37-37 39-31 85-54 132-73 3-1 7-1 10 0 29 15 59 29 88 44 28 16 53 34 74 59 12 15 19 31 19 51-1 82-1 163-1 245l0 11c-3 0-5 1-8 2-49 7-99 16-148 23-13 2-27 4-40 3-29-3-57-9-86-14-30-4-60-9-90-14z m-17 15c29 6 56 12 84 18 37 8 75 15 112 23 6 1 12 0 18-1 61-13 121-25 182-38 7-1 10-4 10-11-1-89-1-177 0-265 0-18-5-35-16-50-17-26-41-46-67-64-36-24-74-45-113-62-4-1-9-2-12-1-51 24-101 51-145 87-17 14-32 29-43 48-6 12-10 24-10 37 0 91 0 182 0 273 0 2 0 4 0 6z m220-133l-99 0 0-19c1-1 1-1 1-1 31 0 62-1 93-1 2 0 4 3 4 4 1 5 1 11 1 17z m-52-90c3 0 6 0 9 0 19 0 38 0 57 0 42 1 72 26 78 66 9 55-26 91-71 93-33 1-67 0-100 0-1 0-2 0-3 0l0-23c4 0 7 0 11 0 29 0 58 1 88 0 21-1 39-11 46-33 12-33 0-80-55-79-26 0-52 0-79 0-5 0-7-2-7-7 0-37 0-74 0-110 0-3 1-5 1-8l25 0z m-135 190c21 4 40 7 60 10 35 5 70 12 105 16 12 1 25-2 38-4 43-7 85-14 128-20 2-1 5-1 8-2l0-10c0-75 0-149 0-224 0-16-4-30-14-41-15-15-30-29-46-41-32-24-67-41-104-55-3-2-7-2-10-1-43 18-86 39-123 70-11 8-20 18-29 29-9 11-13 24-13 38 1 75 0 150 0 225z"/>
<glyph glyph-name="polkadot" unicode="&#118;" d="M257 220c-18 0-31 14-31 31 0 17 13 31 31 31 17 0 31-14 31-31 0-17-14-31-31-31z m0 106c-18 0-31 14-31 31 0 17 13 31 31 31 17 0 31-14 31-31 0-17-14-31-31-31z m0 103c-18 0-31 14-31 31 0 18 13 32 31 32 17 0 31-14 31-32 0-17-14-31-31-31z m0-314c-18 0-31 14-31 31 0 17 13 31 31 31 17 0 31-14 31-31 0-17-14-31-31-31z m0-105c-18 0-31 14-31 31 0 17 13 31 31 31 17 0 31-14 31-31 0-17-14-31-31-31z m97 160c-18 0-32 14-32 31 0 17 14 31 32 31 17 0 31-14 31-31 0-17-14-31-31-31z m0-105c-18 0-32 14-32 31 0 18 14 31 32 31 17 0 31-13 31-31 0-17-14-31-31-31z m-2 313c-17 0-31 14-31 31 0 18 14 31 31 31 17 0 31-13 31-31 0-17-14-31-31-31z m0-104c-17 0-31 14-31 31 0 17 14 31 31 31 17 0 31-14 31-31 0-17-14-31-31-31z m-188 104c-17 0-31 14-31 31 0 18 14 31 31 31 17 0 31-13 31-31 0-17-14-31-31-31z m0-104c-17 0-31 14-31 31 0 17 14 31 31 31 17 0 31-14 31-31 0-17-14-31-31-31z m-97 51c-17 0-31 14-31 31 0 17 14 31 31 31 17 0 31-14 31-31 0-17-14-31-31-31z m0-105c-17 0-31 14-31 31 0 17 14 31 31 31 17 0 31-14 31-31 0-17-14-31-31-31z m97-50c-17 0-31 14-31 31 0 17 14 31 31 31 17 0 31-14 31-31 0-17-14-31-31-31z m0-105c-17 0-31 14-31 31 0 18 14 31 31 31 17 0 31-13 31-31 0-17-14-31-31-31z m-97 51c-17 0-31 14-31 31 0 18 14 31 31 31 17 0 31-13 31-31 0-17-14-31-31-31z m378 105c-17 0-31 14-31 31 0 17 14 31 31 31 17 0 31-14 31-31 0-17-14-31-31-31z m0 104c-17 0-31 14-31 31 0 17 14 31 31 31 17 0 31-14 31-31 0-17-14-31-31-31z m0-209c-17 0-31 14-31 31 0 18 14 31 31 31 17 0 31-13 31-31 0-17-14-31-31-31z"/>
<glyph glyph-name="qtum" unicode="&#119;" d="M293 268l-51 88c-1-1-3-1-4-1-2 0-3 0-5 1l-50-87c2-2 4-5 5-8l101 0c0 3 2 5 4 7z m8 5c2 1 3 1 5 1 1 0 1 0 2 0l34 71c-3 2-5 6-5 9l-83 10c-1-1-2-2-3-3z m16-2c3-3 5-6 6-10l68 0c0 3 2 5 4 7l-39 72c0 0-1 0-2 0-1 0-2 0-3 0z m86 2c0 0 0 0 0 0l7 96c-3 1-6 3-8 6l-30-14c0-1 0-2 0-3 0-6-2-11-6-14z m10 0c6-1 11-6 13-12l15 0c1 4 4 7 6 9l-28 87z m44 1c0 0 1 0 2 0 10 0 18-8 18-18 0-10-8-18-18-18-1 0-1 0-1 0l-36-110 46-40c5 4 11 6 18 6 14 0 26-12 26-26 0-15-12-26-26-26-15 0-27 11-27 26 0 4 1 9 3 12l-46 40-93-68c1-2 1-3 1-5 0-10-8-19-18-19-8 0-15 6-17 14l-101 0c-2-8-9-14-17-14-10 0-18 9-18 19 0 2 0 4 1 6l-83 60c-3-3-7-5-11-5-10 0-18 9-18 19 0 6 3 12 8 15l-31 96c0 0-1 0-1 0-10 0-18 8-18 18 0 10 8 18 18 18l31 97c-4 3-7 8-7 14 0 10 8 18 18 18 4 0 7-1 10-3l83 60c0 2 0 4 0 5 0 10 8 19 18 19 8 0 15-6 17-14l101 0c2 8 9 14 17 14 10 0 18-9 18-19 0-2 0-4-1-6l82-60c3 3 7 4 12 4 10 0 18-8 18-18 0-6-4-12-9-16z m-430-2c4-3 7-7 9-11l16 0c2 5 5 9 10 11l0 0-6 86z m53-1c4-3 6-6 7-10l66 0c1 3 3 6 6 8l-34 71c-1 0-2 0-2 0-2 0-4 0-5 1z m87 3c1 0 3 0 4 0 1 0 2 0 3 0l51 87c-2 1-2 3-3 4l-82-10c0-4-3-8-6-11z m232 110c0 0 0 1 0 1 0 2 0 4 1 6l-83 60 34-75c1 0 2 0 3 0 6 0 10-2 14-6z m-62-20c1 3 3 5 5 7l-34 76c-1 0-1 0-2 0-3 0-5 1-7 2l-47-64c2-3 4-7 4-11z m-117 11c0 3 1 6 3 9l-47 64c-2 0-3-1-5-1-1 0-3 0-4 1l-33-76c2-2 4-4 5-7z m10 15c3 1 5 1 8 1 2 0 4 0 6-1l47 65c-1 2-2 4-2 6l-101 0c0-3-2-6-4-8z m-121-44c-3 3-5 7-5 12 0 1 0 2 1 2l-31 14c-2-3-6-5-9-6l6-93z m-1 23c4 4 9 7 15 7 0 0 1 0 2 0l33 76-81-60c1-2 1-4 1-7 0 0 0-1 0-2z m194-131l-50-86c1-2 2-3 2-5l83 10c1 4 2 7 5 9l-34 72c0 0-1 0-2 0-1 0-3 0-4 0z m-9 5c-2 2-4 5-4 8l-101 0c-1-3-2-6-4-8l49-86c2 1 3 1 5 1 2 0 4 0 5-1z m30 8c-1-4-3-7-5-9l33-71c1 0 2 0 3 0 1 0 3 0 4 0l38 72c-3 2-4 5-5 8z m103 0c-2-6-6-10-12-12l6-85 29 87c-4 2-7 6-8 10z m-363-12c-5 3-9 7-11 12l-16 0c-2-4-4-8-8-10l29-86z m24 12c-1-3-3-6-5-8l38-72c1 0 2 0 3 0 0 0 1 0 1 0l35 71c-3 2-5 6-6 9z m-14-13c0 0 0 0-1 0l-6-94c3-1 6-4 8-6l30 13c0 1 0 1 0 2 0 6 3 11 7 14z m95 0l-34-71c3-2 5-6 6-9l82-10c0 1 1 3 3 4l-50 86c-1 0-3 0-4 0-1 0-2 0-3 0z m-60-96l-30-14c0 0 0-1 0-1 0-3 0-5-1-6l82-60-33 74c-1 0-2 0-3 0-6 0-12 3-15 7z m32 6c-1-4-3-6-5-9l33-75c1 1 2 1 3 1 2 0 4-1 6-2l47 65c-2 3-4 6-4 10z m92-26l-47-64c2-2 3-4 3-7l101 0c0 3 1 5 3 7l-47 65c-2-1-5-1-7-1-2 0-4 0-6 0z m24 15c-1-3-2-6-4-8l48-65c2 0 4 1 6 1 1 0 2 0 2-1l34 76c-2 2-4 4-5 7z m62-77c0 0 0 0 0 0l89 65-38 17c-4-4-9-7-15-7-1 0-2 0-3 0z m48 106c4-3 6-8 6-13 0-1 0-1 0-2l40-17-8 103z"/>
<glyph glyph-name="tezos" unicode="&#121;" d="M207 405c29 0 57 0 84 0 38 0 76 0 113 1 7 0 12-2 16-7 4-5 9-9 14-14-42-41-83-82-124-123 11 1 22 3 32 2 51-9 87-46 95-98 5-31 2-61-10-89-11-26-29-45-56-56-36-15-73-17-111-5-33 11-55 48-53 75 1 18 13 31 32 32 20 1 34-10 36-29 2-18-4-28-21-37 4-3 7-7 11-9 28-17 73-12 96 12 11 11 16 24 19 39 6 29 7 58-2 87-9 29-29 47-60 51-13 2-25-2-37-8-10-5-20-10-30-15-2 7-1 13 3 18 34 45 68 90 102 134 2 3 4 6 6 9l-155 0c0-2 0-5 0-7 0-48 0-97 0-145 0-7 1-15 3-21 7-23 26-31 48-22 12 5 21 15 30 26 3 3 5 9 12 6 5-3 10-9 7-15-4-10-9-21-16-29-13-15-31-22-51-21-12 1-23 1-35 4-33 6-52 29-52 62-1 51-1 102-1 153 0 3 0 6 0 10l-79 0 0 29 79 0c0 9 0 17 0 25 0 5 0 11 0 16 3 17-2 30-15 40-4 3-3 11-5 17 15 0 29 0 42 0 10 1 18-2 26-6 5-3 7-6 7-11 0-24 0-48 0-72z"/>
<glyph glyph-name="ton" unicode="&#122;" d="M256 485c-126 0-228-102-229-229-1-124 102-228 226-229 128-1 231 101 232 227 1 128-101 230-229 231z m-245-229c0 135 110 246 246 245 134-1 245-110 244-246 0-134-110-244-245-244-135 0-245 110-245 245z m253-141l1 0c4 7 8 14 12 21 18 32 37 64 55 96 17 29 33 57 50 86 3 5 4 12 2 18-3 12-12 18-24 18-31 0-61 0-92 0l-4 0z m-17 238c-1 0-2 1-3 1-32 0-64 0-95 0-19-1-30-20-21-36 3-5 6-10 8-14 13-21 25-42 37-63 22-37 43-74 65-112 2-4 5-9 8-14 0 0 1 0 1 0z m8 18c35 0 70 0 106 0 22 0 39-17 41-38 0-8-2-16-6-23-23-40-46-81-70-121-14-25-28-50-42-75-4-6-7-12-11-18-8-14-27-15-35 0-12 20-24 41-36 62-14 24-29 49-43 73-11 19-21 37-32 56-5 9-11 18-15 27-9 16-2 38 13 49 7 5 15 8 25 8 35 0 70 0 105 0z"/>
<glyph glyph-name="kava" unicode="&#65;" d="M141 182l-26 0-41 56-42-56 0 0 0 0-21 0 0 148 21 0 0 0 0 0 42-56 41 56 26 0-54-74 54-74z m-109 36l28 38 0 0 0 0-28 38z m173 85c26 0 49-11 49-44l0-77-20 0 0 16c-6-5-14-16-35-16-28 0-45 15-45 38 0 29 25 39 49 39 19 0 25-3 32-4 0 20-12 29-30 29-12 0-24-3-35-9l-7 18c10 4 23 10 42 10z m30-77l0 11c0 0-9 4-31 4-19 0-29-9-29-20 0-10 9-21 26-21 19 0 34 13 34 26z m216 77c26 0 50-11 50-44l0-77-20 0 0 16c-6-5-15-16-36-16-28 0-44 15-44 38 0 29 24 39 48 39 20 0 26-3 32-4 0 20-12 29-30 29-12 0-24-3-35-9l-6 18c9 4 23 10 41 10z m30-77l0 11c0 0-9 4-30 4-20 0-30-9-30-20 0-10 9-21 26-21 19 0 34 13 34 26z m-208 75l23 0 35-89 35 89 22 0-49-119-16 0z"/>
<glyph glyph-name="cyberway" unicode="&#70;" d="M384 111c0 0 3 6 4 6 28 48 56 96 84 144-1 2-2 3-4 4-26-15-53-29-80-44-2-2-4-6-4-9-1-31-1-63-1-94 1 0 0-7 1-7z m-343 156c-1-1-2-2-3-4 29-49 58-98 88-148 3 33 3 66 3 98 0 2-2 6-4 7-28 16-56 31-84 47z m313 220l-196 0c34-18 63-35 93-51 3-1 8-2 11 0 30 16 59 32 92 51z m-207-258l219 0c-36 62-72 122-109 185-37-63-73-123-110-185z m-3-135l226 0 0 120-226 0z m346 196c-39 66-77 131-115 195-38-21-73-41-109-62 38-65 75-128 113-193 37 20 73 39 111 60z m-241 133c-38 21-74 41-112 62-38-65-76-129-114-194 34-19 66-36 98-55 11-6 15-3 21 7 23 40 47 80 71 121 12 19 24 39 36 59z m119 77c6 0 14-5 17-10 38-62 74-125 112-188 4-8 5-14 0-23-38-63-74-127-112-190-3-4-11-9-16-9-75-1-151-1-226 0-5 0-13 4-16 9-38 63-74 127-112 190-5 9-5 15 0 23 38 63 74 126 112 188 3 5 11 10 17 10 38 1 75 0 113 0 37 0 74 1 111 0z"/>
<glyph glyph-name="elrond" unicode="&#72;" d="M394 400c-1 2-2 4-2 6 0 3 1 5 2 7 4 3 10 3 14 0 2-2 3-4 3-7 0-2-1-4-3-6-2-2-4-3-7-3-2 0-5 1-7 3z m-24-25c-1 2-2 4-2 6 0 3 1 5 2 7 4 3 10 3 13 0 2-2 3-4 3-7 0-2-1-4-3-6-2-2-4-3-6-3-3 0-5 1-7 3z m-26-25c-2 2-3 4-3 6 0 3 1 5 3 7 3 3 9 3 13 0 1-2 2-4 2-7 0-2-1-4-2-6-2-2-4-3-7-3-2 0-4 1-6 3z m-25-25c-2 1-3 4-3 6 0 2 1 5 3 6 4 4 10 4 14 0 1-1 2-4 2-6 0-2-1-5-2-6-2-2-5-3-7-3-3 0-5 1-7 3z m-24-25c-2 1-3 4-3 6 0 2 1 5 3 6 4 4 9 4 13 0 2-1 2-4 2-6 0-2 0-5-2-6-2-2-4-3-7-3-2 0-4 1-6 3z m-29-19c0 2 1 5 3 6 3 4 9 4 12 0 2-1 3-4 3-6 0-2-1-5-3-6-1-2-4-3-6-3-2 0-4 1-6 3-2 1-3 4-3 6z m-46-55c-2 1-3 4-3 6 0 2 1 5 3 6 3 4 9 4 12 0 2-1 3-4 3-6 0-2-1-5-3-6-1-2-4-3-6-3-2 0-4 1-6 3z m-26-25c-2 1-3 4-3 6 0 2 1 4 3 6 3 4 9 4 13 0 2-2 3-4 3-6 0-2-1-5-3-6-2-2-4-3-7-3-2 0-4 1-6 3z m-24-26c-2 2-3 4-3 7 0 2 1 4 3 6 3 4 9 4 12 0 2-2 3-4 3-6 0-3-1-5-3-7-1-1-4-2-6-2-2 0-5 1-6 2z m-25-25c-2 2-3 4-3 7 0 2 1 4 3 6 3 4 9 4 12 0 2-2 3-4 3-6 0-3-1-5-3-7-2-1-4-2-6-2-2 0-5 1-6 2z m-27-25c-1 2-2 4-2 7 0 2 1 4 2 6 4 3 10 3 14 0 2-2 3-4 3-6 0-3-1-5-3-7-2-1-4-2-7-2-2 0-5 1-7 2z m-24-25c-1 2-2 4-2 7 0 2 1 4 2 6 4 3 9 3 13 0 2-2 3-4 3-6 0-3-1-5-3-7-2-2-4-2-6-2-3 0-5 0-7 2z m13 300c-2-2-4-3-6-3-3 0-5 1-7 3-1 2-2 4-2 6 0 3 1 5 2 7 4 3 10 3 13 0 2-2 3-4 3-7 0-2-1-4-3-6z m25-25c-2-2-4-3-7-3-2 0-5 1-7 3-1 2-2 4-2 6 0 3 1 5 2 7 4 3 10 3 14 0 2-2 3-4 3-7 0-2-1-4-3-6z m25-25c-2-2-4-3-6-3-2 0-5 1-7 3-1 2-2 4-2 6 0 3 1 5 2 7 4 3 10 3 13 0 2-2 3-4 3-7 0-2-1-4-3-6z m25-25c-1-2-4-3-6-3-2 0-5 1-6 3-2 1-3 4-3 6 0 2 1 5 3 6 3 4 9 4 12 0 2-1 3-4 3-6 0-2-1-5-3-6z m25-25c-2-2-4-3-7-3-2 0-5 1-6 3-2 1-3 4-3 6 0 2 1 5 3 6 3 4 9 4 13 0 2-1 3-4 3-6 0-2-1-5-3-6z m28-19c0-2-1-5-3-6-1-2-4-3-6-3-2 0-5 1-6 3-2 1-3 4-3 6 0 2 1 5 3 6 3 4 9 4 12 0 2-1 3-4 3-6z m23-31c-2-2-4-3-7-3-2 0-4 1-6 3-2 1-3 4-3 6 0 2 1 4 3 6 3 4 9 4 13 0 1-2 2-4 2-6 0-2-1-5-2-6z m24-24c-1-2-4-3-6-3-3 0-5 1-7 3-2 1-3 4-3 6 0 2 1 5 3 6 4 4 10 4 13 0 2-1 3-4 3-6 0-2-1-5-3-6z m26-25c-2-2-4-3-7-3-2 0-4 1-6 3-2 1-3 4-3 6 0 2 1 4 3 6 4 4 9 4 13 0 1-2 2-4 2-6 0-2-1-5-2-6z m25-26c-2-1-4-2-7-2-2 0-4 1-6 2-2 2-2 4-2 7 0 2 0 4 2 6 4 4 9 4 13 0 2-2 2-4 2-6 0-3 0-5-2-7z m24-25c-2-1-4-2-7-2-2 0-4 1-6 2-2 2-3 4-3 7 0 2 1 4 3 6 3 4 9 4 13 0 1-2 2-4 2-6 0-3-1-5-2-7z m26-25c-2-1-4-2-6-2-3 0-5 1-7 2-2 2-2 4-2 7 0 2 0 4 2 6 4 3 9 3 13 0 2-2 3-4 3-6 0-3-1-5-3-7z m25-25c-2-2-4-2-7-2-2 0-5 0-7 2-1 2-2 4-2 7 0 2 1 4 2 6 4 3 10 3 14 0 2-2 3-4 3-6 0-3-1-5-3-7z m-242 293l-54 54c42 32 88 48 138 48 50 0 96-16 138-48l-54-54c-25 17-53 25-84 25-31 0-59-8-84-25z m-54-220l-53-54c-32 41-48 87-48 138 0 50 16 96 48 137l53-53c-17-26-25-54-25-84 0-31 8-59 25-84z m223-54l53-54c-41-31-86-48-137-48-51 0-97 16-139 48l54 54c26-18 54-27 85-26 30 0 58 9 84 26z m52 222l54 53c33-41 49-87 48-138 0-50-16-96-48-137l-54 54c17 25 25 52 26 82 0 31-8 60-26 86z m57-239c20 0 37-17 37-37 0-21-17-38-37-38-21 0-38 17-38 38 0 20 17 37 38 37z m-386 0c21 0 37-16 37-37 0-21-16-38-37-38-20 0-37 17-37 38 0 21 17 37 37 37z m386 385c21 0 37-17 37-38 0-20-16-37-37-37-20 0-37 17-37 37 0 21 17 38 37 38z m-386 0c20 0 37-17 37-37 0-20-17-37-37-37-21 0-38 17-38 37 0 20 17 37 38 37z"/>
<glyph glyph-name="aion" unicode="&#73;" d="M199 341c5 0 10-1 13-5 3-3 5-7 5-12 0-5-2-10-5-13-3-4-8-5-13-5-5 0-9 1-12 5-4 3-5 8-5 13 0 5 1 9 5 12 3 4 7 5 12 5z m-17-170l0 121 35 0 0-121z m142 36c6 6 8 14 8 24 0 10-2 18-8 25-5 6-13 9-22 9-9 0-16-3-22-9-5-7-8-15-8-25 0-10 3-18 8-24 6-7 13-10 22-10 9 0 17 3 22 10z m12 77c9-5 17-12 22-21 5-9 8-20 8-32 0-12-3-23-8-32-5-9-13-16-22-21-10-5-21-7-34-7-13 0-24 2-33 7-10 5-18 12-23 21-5 10-8 20-8 32 0 12 3 23 8 32 5 9 13 16 23 21 9 5 20 8 33 8 13 0 24-3 34-8z m151-5c9-9 14-23 14-43l0-65-34 0 0 63c0 20-9 31-25 31-9 0-16-3-21-9-5-6-7-14-7-24l0-61-34 0 0 119 30 0 3-15c4 5 9 9 15 12 7 3 14 5 23 5 14 0 26-5 36-13z m-394-73c10 0 18-8 18-18 0-9-8-17-18-17-10 0-18 8-18 17 0 10 8 18 18 18z m-22 128l43 0 60-163-36 0-45 123-45-123-37 0z"/>
<glyph glyph-name="remme" unicode="&#74;" d="M175 238l-13 23-7 0 0-23-18 0 0 70 30 0c8 0 15-2 19-6 5-5 7-10 7-17 0-9-4-17-13-21l15-26z m-20 54l0-15 11 0c12-1 11 16 1 15z m99-34l-38 0c2-5 6-8 13-8 6 0 11 2 16 5l6-11c-6-5-14-8-23-8-10 0-17 3-22 8-5 6-7 12-7 20 0 8 2 14 7 20 6 5 13 8 21 8 8 0 14-3 19-8 6-4 8-11 8-19 0-2 0-4 0-7z m-39 12l23 0c-2 5-5 8-11 8-6 0-10-2-12-8z m129 16c4-3 6-9 6-16l0-32-17 0 0 28c0 7-3 10-8 10-6 0-10-4-10-10l0-28-17 0 0 28c0 7-4 10-9 10-6 0-10-4-10-10l0-28-17 0 0 52 17 0 0-7c3 6 10 9 16 9 8 0 12-3 15-9 4 6 11 9 19 9 5 0 11-2 15-6z m98 0c5-3 7-9 7-16l0-32-17 0 0 28c0 7-4 10-9 10-6 0-10-4-10-10l0-28-17 0 0 28c0 7-3 10-9 10-5 0-9-4-9-10l0-28-17 0 0 52 16 0 0-7c3 6 10 9 17 9 7 0 12-3 14-9 4 6 11 9 19 9 6 0 11-2 15-6z m69-28l-38 0c2-5 7-8 13-8 6 0 12 2 16 5l7-11c-7-5-15-8-23-8-10 0-17 3-22 8-5 6-8 12-8 20 0 8 3 14 8 20 5 5 12 8 21 8 7 0 14-3 19-8 5-4 8-11 8-19 0-2 0-4-1-7z m-38 12l23 0c-2 5-6 8-11 8-6 0-10-2-12-8z m-362-45l-7 16-17-7-8 21c8 8 14 19 14 32 0 24-20 44-44 44-24 0-44-20-44-44 0-13 5-24 14-32l-18-44 16-7 7 16 17-7 7 17-17 7 11 24-7 4c-7 5-12 13-12 22 0 14 12 26 26 26 14 0 26-12 26-26 0-9-5-17-12-22l-6-4 25-60 17 7-4 10z m-84-44l-17 7 7 16 17-7z"/>
<glyph glyph-name="nucypher" unicode="&#75;" d="M0 135l13 0 35-56c2-2 3-4 4-6l0 62 12 0 0-80-13 0-36 56c-1 2-2 4-3 6l0-62-12 0z m78-23l12 0 0-34c0-9 4-14 12-14 9 0 15 7 15 17l0 31 12 0 0-57-12 0 0 9c-2-3-4-6-8-8-3-2-7-3-10-2-11 0-21 6-21 21z m136-37c-8-14-18-21-35-21-23 0-40 17-40 41 0 25 19 42 41 42 16 0 28-9 34-21l-10-7c-6 11-14 16-25 16-15 0-27-12-27-30 0-17 12-30 27-30 11 0 20 5 26 16z m13-32c2-1 3-1 5-1 3 0 5 1 7 6l3 7-23 57 13 0 16-41 16 41 13 0-28-68c-3-9-9-13-16-13-2 0-5 1-8 1z m58 69l12 0 0-9c3 6 11 10 20 10 14 0 26-11 26-30 0-18-12-29-27-29-8 0-16 3-19 9l0-31-12 0z m11-29c0-11 8-19 17-19 10 0 18 8 18 19 0 12-8 20-18 20-9 0-17-8-17-20z m109-28l-12 0 0 35c0 8-5 13-13 13-8 0-15-7-15-18l0-30-12 0 0 80 12 0 0-33c2 4 5 6 8 8 4 2 8 3 12 3 11 0 20-7 20-20z m20 26c1-10 7-17 17-17 10 0 14 5 17 11l9-5c-5-11-13-16-26-16-15 0-28 12-28 29 0 18 13 30 29 30 16 0 27-11 27-28l0-4z m0 9l34 0c-1 9-9 14-17 14-8 0-15-6-17-14z m85 12c-1 0-3 0-4 0-9 0-15-7-15-17l0-30-11 0 0 57 11 0 0-10c3 7 9 11 17 11 1 0 3 0 4 0z m-168 379l-33-16c0 0 0 0 0 0 0 0 0 0 0-1 0 0 0 0 0 0 0 0 0 0 0-1l49-104c19-39 14-69-14-82-23-11-42-3-58 23l-58 124c-24 50-57 63-95 45-25-12-40-33-40-60 0 0 0-1 0-1 0 0 0 0-1 0 0 0 0 0-1 0 0 0 0 0 0 0l-13 27c0 1 0 1 0 1-1 0-1 0-1 0 0 0 0 0 0 0-1 0-1 0-1 0l-33-15c0-1 0-1 0-1 0 0 0-1 0-1l90-190c0-1 0-1 1-1 0 0 0 0 1 0l32 16c1 0 1 0 1 0 0 0 0 0 0 0 0 1 0 1 0 1 0 0 0 0 0 0l-48 102c-20 42-16 72 14 86 23 11 41 3 57-25 0 0 0 0 0 0l59-122c22-48 57-64 94-47 28 14 40 34 39 61 0 0 0 1 1 1 0 0 0 0 0 0 1 0 1 0 1 0 1 0 1 0 1 0l13-28c0 0 0 0 0 0 0 0 1 0 1 0 0 0 0 0 0 0 0 0 1 0 1 0l32 15c1 0 1 0 1 0 0 1 0 1 0 1 0 0 0 0 0 0 0 1 0 1 0 1l-90 190c0 0-1 1-1 1 0 0-1 0-1 0z"/>
<glyph glyph-name="neo" unicode="&#114;" d="M27 422l0-342 220-80 0 345 238 89-216 78z m238-87l0-187 220-80 0 350z"/>
<glyph glyph-name="nebulas" unicode="&#76;" d="M256 493l-53-145-1 0-202-92 156-49 100-188 53 145 1 0 202 92-156 49z m3-42l79-149-161-73z m-103-227l-111 34 3 1 147 68-38-104z m29-9l2 1 163 74 117-37-3-1-163-74z m-5-16l111-35-38-103z"/>
<glyph glyph-name="logo" unicode="&#77;" d="M464 239l-88-153-94 163c-4 5-4 13 0 18l94 163 11 19c-8-13-7-30 2-42 3-4 75-130 75-130l-111 0c-10 0-19-9-19-19 0-10 9-19 19-19l89 0c14 0 26 8 33 20l-11-20z m-297-171l55 96c4 5 4 13 1 19-4 6-10 9-17 9-7 0-13-4-16-10l-56-96-11-19c7 11 7 24 2 35l-79 137 187 0c7 0 13-3 17-9l83-144c7-11 20-18 33-18z m-121 209l88 153 56-96c5-8 16-11 25-6 8 5 11 16 7 24l-45 78c-7 11-20 18-33 18l199 0-93-162c-4-6-10-9-17-9l-165 0c-13 0-26-8-33-20z m454 12l-99 171c-9 16-26 26-44 26l-197 0c-23 0-43-12-54-32l-99-171c-9-15-9-34 0-50l99-171c11-20 31-32 54-32l197 0c18 0 35 10 44 26l99 171c11 19 11 43 0 62z"/>
<glyph glyph-name="coda" unicode="&#78;" d="M96 416l320 0 0-320-320 0z"/>
<glyph glyph-name="fio" unicode="&#79;" d="M168 244c1-1 2-2 4-3l93-47 0-136c0-7-4-11-10-8l-77 42c-6 5-10 12-10 19z m121 67l1-1 41-21 1 0c4-4 7-9 7-15l0-95c0-6-4-9-8-7l-154 79 0 0c-1 1-2 1-3 2 2 0 3 1 5 1l107 55 2 1c1 1 1 1 2 0z m-116 58c1 0 3 0 3-1l107-54-106-55c-1-1-2-1-3-1-3 0-5 2-5 4-1 1-1 2-1 4l0 92c0 3 0 5 0 6 1 4 3 5 5 5z m158 86c4 3 8 0 8-6l0-96c0-6-3-12-8-15l-42-22-3 2-107 55c-2 1-3 1-5 1 5 3 10 6 15 8z"/>
<glyph glyph-name="oasis" unicode="&#80;" d="M447 397c-37 46-91 75-151 75-115 0-200-105-200-219 0-79 54-138 114-138 5 0 11 0 16 1-40 29-65 81-65 137 0 90 62 160 135 160 80 0 136-77 136-160-1-60-23-121-62-165-34-39-78-64-126-72 0 0 4 0 9 0 134 0 243 106 243 237 0 54-18 104-49 144z m-31-138c0 79-54 138-114 138-5 0-11 0-16-1 40-29 65-81 65-137 0-90-62-160-135-160-80 0-136 77-136 160 1 60 23 121 62 165 34 39 78 64 126 72 0 0-4 0-9 0-134 0-243-106-243-237 0-54 18-104 49-144 37-46 91-75 151-75 115 0 200 105 200 219z"/>
<glyph glyph-name="solana" unicode="&#81;" d="M449 171c11 0 17-14 9-22l-55-55c-2-3-6-4-9-4l-327 0c-12 0-18 14-9 22l53 55c3 3 6 4 9 4z m-55 125c3 0 7-2 9-4l55-55c8-8 2-22-9-22l-329 0c-3 0-6 1-9 4l-53 55c-9 8-3 22 9 22z m55 124c11 0 17-14 9-22l-55-55c-2-2-6-4-9-4l-327 0c-12 0-18 14-9 23l53 54c3 3 6 4 9 4z"/>
<glyph glyph-name="switcheo" unicode="&#120;" d="M512 512l0-512-100 0 0 333-333-332-78 78 332 333-333 0 0 100z"/>
<glyph glyph-name="terra" unicode="&#71;" d="M305 294l0 0c1 0 3 0 4 0l0-27c-2 0-4 1-6 1-2 1-4 1-6 1-6 0-11-1-14-3-3-1-6-3-8-6-1-3-3-6-3-10-1-4-1-8-1-13l0-40-30 0 0 95 30 0 0-10c5 5 11 10 21 12 2 0 5 0 7 0 4 0 5 0 6 0z m81 0l0 0c2 0 3 0 5 0l0-27c-2 0-4 1-6 1-3 1-5 1-7 1-6 0-10-1-14-3-3-1-6-3-7-6-2-3-3-6-4-10 0-4-1-8-1-13l0-40-30 0 0 95 30 0 0-10c6 5 12 10 21 12 3 0 5 0 8 0 3 0 4 0 5 0z m-322-1l-41 0 0 26 115 0 0-26-42 0 0-95-32 0z m133-41c0 5-2 9-5 13-4 3-8 5-14 5-3 0-6-1-9-2-2-1-4-2-6-3-2-2-4-4-5-6-1-2-1-4-1-7l40 0z m26-40c-5-6-11-11-19-14-7-3-15-5-23-5-7 0-15 2-21 4-7 2-13 5-18 10-5 4-9 9-12 15-3 6-4 13-4 20 0 7 1 14 4 20 3 6 7 11 12 15 5 4 11 8 18 10 6 2 14 3 21 3 7 0 14-1 19-3 6-2 11-6 15-10 4-4 7-9 9-15 2-6 4-13 4-20l0-9-71 0c1-5 4-10 8-13 4-3 9-5 15-5 5 0 9 1 12 3 4 2 7 5 10 8z m239 16l0 2c0 2-2 4-4 4-4 2-9 3-15 3-12 0-20-5-20-13l0-1c0-7 7-11 16-11 14 0 23 7 23 16z m-67-6l0 1c0 20 17 30 41 30 11 0 18-2 25-4l0 1c0 11-7 18-22 18-11 0-18-2-28-6l-7 21c11 4 22 7 40 7 15 0 27-3 34-10 8-7 11-18 11-30l0-55-28 0 0 10c-7-7-17-12-31-12-19 0-35 11-35 29z"/>
<glyph glyph-name="band" unicode="&#82;" d="M408 102l-156-90 0 0 0 0-157 90 0 313 0 0 157 90 100-56 0 0 0-141-49 28 0 85-51 29-108-62 0-259 108-62 108 62 0 106-153 89 49 26 153-89-1-159z m-127 167l38-22-112-64 0 129 39-23 0-39 35 19z"/>
<glyph glyph-name="chainlink" unicode="&#83;" d="M255 512l-47-27-127-73-46-27 0-254 46-26 128-74 47-26 47 26 125 74 47 26 0 254-47 27-127 73z m-127-327l0 147 127 73 127-73 0-147-127-73z"/>
<glyph glyph-name="edgeware" unicode="&#84;" d="M106 362l0-87 75 43 10-18-75-43 75-44-10-17-75 43 0-87-21 0 0 87-75-43-10 17 75 44-75 43 10 18 75-43 0 87z m311-134l94-54-10-18-94 55z m-32 0l10-17-94-55-10 18z m26 117l0-108-20 0 0 108z"/>
<glyph glyph-name="telos" unicode="&#85;" d="M256 447c105 0 191-86 191-191 0-105-86-191-191-191-105 0-191 86-191 191 0 105 86 191 191 191"/>
</font>
</defs>
</svg>
