<svg
   xmlns="http://www.w3.org/2000/svg"
   width="70mm"
   height="62.55mm"
   viewBox="0 0 26.716339 23.936859"
   style="filter:url(#filter116);">
   <defs
     id="defs4">
    <filter
       id="filter116">
      <feFlood
         result="result1"
         flood-color="rgb(255,255,255)"
         flood-opacity="1"
         id="feFlood104" />
      <feMerge
         result="result3"
         id="feMerge114">
        <feMergeNode
           in="result1"
           id="feMergeNode110" />
        <feMergeNode
           in="SourceGraphic"
           id="feMergeNode112" />
      </feMerge>
    </filter>
  </defs>
  <g
     transform="translate(-8.5644499,-65.049428)">
    <g
       transform="matrix(0.26458333,0,0,0.26458333,8.5617369,65.049433)"
       style="fill:#000000;">
      <path
         class="cls-1"
         d="M 99.33,39 79.68,5 A 10,10 0 0 0 71,0 H 31.74 A 12.45,12.45 0 0 0 21,6.21 l -19.65,34 a 10,10 0 0 0 0,10 L 21,84.26 a 12.45,12.45 0 0 0 10.75,6.21 H 71 a 10,10 0 0 0 8.64,-5 l 19.65,-34 A 12.44,12.44 0 0 0 99.33,39 Z m -92.4,6.35 2.22,-3.81 v 0 l 17.55,-30.45 11,19.08 a 3.7,3.7 0 0 0 6.4,-3.7 L 35.24,11.09 v 0 A 8.39,8.39 0 0 0 28.64,7.4 H 68.26 L 49.63,39.67 v 0 a 3.75,3.75 0 0 1 -3.24,1.87 H 13.62 A 7.69,7.69 0 0 0 6.93,45.35 Z M 68.26,83.08 H 33.11 l 11,-19.1 a 3.7,3.7 0 1 0 -6.4,-3.7 l -11,19.1 v 0 0 l -2.19,3.82 a 7.7,7.7 0 0 0 0.33,-7 L 9.13,48.93 h 37.26 a 3.76,3.76 0 0 1 3.24,1.87 v 0 l 16.55,28.66 a 8.29,8.29 0 0 0 6.54,3.62 z M 66.14,79.4 Z M 92.24,48.94 74.67,79.38 56,47.11 a 3.76,3.76 0 0 1 0,-3.74 v 0 L 74.67,11.09 v 0 l 2.19,-3.81 a 7.74,7.74 0 0 0 0.42,8.33 c 0.63,0.88 15,25.92 15,25.92 H 70.17 a 3.7,3.7 0 1 0 0,7.4 h 17.7 -0.1 a 7.69,7.69 0 0 0 6.69,-3.81 l -2.23,3.83 z"
         id="path8"
         style="fill:#000000" />
    </g>
  </g>
</svg>
