<?xml version="1.0" encoding="UTF-8"?>
<svg width="45px" height="17px" viewBox="0 0 45 17" version="1.1" xmlns="http://www.w3.org/2000/svg" xmlns:xlink="http://www.w3.org/1999/xlink">
    <!-- Generator: Sketch 52.5 (67469) - http://www.bohemiancoding.com/sketch -->
    <title>aion</title>
    <desc>Created with Sketch.</desc>
    <g id="aion" stroke="none" stroke-width="1" fill="none" fill-rule="evenodd">
        <path d="M17.5241228,1 C17.970041,1 18.3394285,1.14752318 18.6329232,1.44243842 C18.9257802,1.73722253 19.0724638,2.1075385 19.0724638,2.55273069 C19.0724638,2.99831627 18.9257802,3.3717794 18.6329232,3.67285783 C18.3394285,3.97459192 17.970041,4.125 17.5241228,4.125 C17.0779496,4.125 16.7048631,3.97459192 16.4057562,3.67285783 C16.106139,3.3717794 15.9565217,2.99831627 15.9565217,2.55273069 C15.9565217,2.1075385 16.106139,1.73722253 16.4057562,1.44243842 C16.7048631,1.14752318 17.0779496,1 17.5241228,1 Z M15.9565217,16 L15.9565217,5.375 L19.0724638,5.375 L19.0724638,16 L15.9565217,16 Z M28.4859718,12.8486323 C28.9618092,12.2966072 29.2000041,11.5762523 29.2000041,10.6875674 C29.2000041,9.79847819 28.9618092,9.07825799 28.4859718,8.52609815 C28.0098582,7.97407309 27.3647298,7.69779101 26.5507246,7.69779101 C25.750666,7.69779101 25.1124418,7.97407309 24.6364662,8.52609815 C24.1604907,9.07825799 23.9224339,9.79847819 23.9224339,10.6875674 C23.9224339,11.5762523 24.1604907,12.2966072 24.6364662,12.8486323 C25.1124418,13.4010617 25.750666,13.6769394 26.5507246,13.6769394 C27.3647298,13.6769394 28.0098582,13.4010617 28.4859718,12.8486323 Z M29.4999226,6.03147317 C30.3484487,6.46934656 31.0037953,7.09185725 31.4661006,7.89994863 C31.9281296,8.70777046 32.1594203,9.63715641 32.1594203,10.6875674 C32.1594203,11.7513208 31.9281296,12.6839412 31.4661006,13.4851593 C31.0037953,14.2863773 30.3484487,14.9060578 29.4999226,15.3435268 C28.6513964,15.7811307 27.6683765,16 26.5507246,16 C25.4332109,16 24.4501909,15.7811307 23.6015267,15.3435268 C22.7531386,14.9060578 22.097792,14.2828732 21.6354868,13.4750514 C21.1730435,12.6668252 20.942029,11.7378436 20.942029,10.6875674 C20.942029,9.63715641 21.1730435,8.70777046 21.6354868,7.89994863 C22.097792,7.09185725 22.7531386,6.46934656 23.6015267,6.03147317 C24.4501909,5.59386931 25.4332109,5.375 26.5507246,5.375 C27.6683765,5.375 28.6513964,5.59386931 29.4999226,6.03147317 Z M42.7735003,6.51933773 C43.5909787,7.28209323 44,8.54203716 44,10.2994422 L44,16 L41.0184757,16 L41.0184757,10.4626269 C41.0184757,8.65096328 40.2850873,7.74533598 38.8192982,7.74533598 C38.0437238,7.74533598 37.4445124,7.99754289 37.0216642,8.50127507 C36.598816,9.00541623 36.3871803,9.71377683 36.3871803,10.6262205 L36.3871803,16 L33.4057971,16 L33.4057971,5.49769525 L36.0066592,5.49769525 L36.2815035,6.80521768 C36.6621657,6.35574406 37.1201454,6.00510829 37.6561482,5.75276505 C38.1917277,5.50096713 38.8541476,5.375 39.6439721,5.375 C40.9125168,5.375 41.9558809,5.75644591 42.7735003,6.51933773 Z M8.16666667,12.875 C9.02710037,12.875 9.72463768,13.5745361 9.72463768,14.4374353 C9.72463768,15.3003345 9.02710037,16 8.16666667,16 C7.30610389,16 6.60869565,15.3003345 6.60869565,14.4374353 C6.60869565,13.5745361 7.30610389,12.875 8.16666667,12.875 Z M6.27578442,1.625 L10.0575489,1.625 L15.3333333,16 L12.1383333,16 L8.16673745,5.17853705 L4.19499998,16 L1,16 L6.27578442,1.625 Z" id="Combined-Shape" fill="#000000"></path>
    </g>
</svg>