<?xml version="1.0" encoding="UTF-8"?>
<svg width="21px" height="32px" viewBox="0 0 21 32" version="1.1" xmlns="http://www.w3.org/2000/svg" xmlns:xlink="http://www.w3.org/1999/xlink">
    <!-- Generator: Sketch 63 (92445) - https://sketch.com -->
    <title>logo-white</title>
    <desc>Created with Sketch.</desc>
    <g id="Page-1" stroke="none" stroke-width="1" fill="none" fill-rule="evenodd">
        <g id="logo-white" fill="#000000" fill-rule="nonzero">
            <path d="M20.0184,25.5971 L10.2425,31.2451 L10.2425,31.2471 L10.2385,31.2471 L0.4565,25.5971 L0.4565,6.0527 L0.4666,6.0588 L10.2344,0.42289 L16.5039,3.9177 L16.5059,3.9177 L16.5059,12.7408 L13.4552,10.9904 L13.4552,5.6763 L10.2385,3.8449 L3.5051,7.7343 L3.5051,23.9357 L10.2385,27.8251 L16.9718,23.9478 L17.0042,17.29 L7.437,11.7452 L10.5099,10.1303 L20.0427,15.6832 L20.0184,25.5991 L20.0184,25.5971 Z M12.0818,15.1996 L14.4377,16.5534 L7.437,20.5359 L7.437,12.5061 L9.8961,13.955 L9.8961,16.3652 L12.0839,15.1996 L12.0818,15.1996 Z" id="Shape"></path>
        </g>
    </g>
</svg>