<?xml version="1.0" encoding="UTF-8"?>
<svg width="45px" height="39px" viewBox="0 0 45 39" version="1.1" xmlns="http://www.w3.org/2000/svg" xmlns:xlink="http://www.w3.org/1999/xlink">
    <!-- Generator: Sketch 52.5 (67469) - http://www.bohemiancoding.com/sketch -->
    <title>Cyberway</title>
    <desc>Created with Sketch.</desc>
    <defs>
        <polygon id="path-1" points="0 0 43 0 43 37 0 37"></polygon>
    </defs>
    <g id="Cyberway" stroke="none" stroke-width="1" fill="none" fill-rule="evenodd">
        <g id="Group-3" transform="translate(1.000000, 1.000000)">
            <mask id="mask-2" fill="white">
                <use xlink:href="#path-1"></use>
            </mask>
            <g id="Clip-2"></g>
            <path
              d="M32.7185711,34.2398595 C32.7903571,34.2626052 33.00912,33.6959411 33.0808784,33.7187646 C35.5628815,29.4814289 38.0448847,25.2438127 40.5268879,21.0064769 C40.4044178,20.9110983 40.2816642,20.8160002 40.1591942,20.7209021 C37.8169543,22.0029031 35.468194,23.2728414 33.1435309,24.5857001 C32.9181519,24.7130587 32.7216896,25.1021473 32.7185711,25.3722933 C32.6876701,28.1138677 32.6998604,30.8560032 32.6998604,33.5978582 C32.7549847,33.6154303 32.6633022,34.2223474 32.7185711,34.2398595 Z M2.61645115,20.5626858 C2.53423745,20.6516123 2.45174026,20.7408194 2.36952656,20.829746 C4.92353759,25.1748034 7.47783211,29.5195803 10.0321266,33.8646378 C10.35843,30.9452103 10.3675018,28.1211614 10.3419872,25.2971125 C10.3397193,25.0645569 10.164519,24.7284875 9.96777315,24.6179606 C7.52829431,23.2470331 5.07010476,21.9092076 2.61645115,20.5626858 Z M30.1075775,1.16772278 L12.8789885,1.16772278 C15.8378311,2.79813623 18.4247276,4.23891453 21.0343038,5.63901665 C21.3152478,5.78965878 21.8065455,5.84548332 22.0648099,5.70381801 C24.6494385,4.28492069 27.2051505,2.81524828 30.1075775,1.16772278 Z M11.8955426,23.8992546 L31.1927983,23.8992546 C27.9805107,18.4326567 24.868297,13.1368987 21.6188715,7.60746317 C18.3218188,13.1318493 15.1690652,18.4144225 11.8955426,23.8992546 Z M11.616016,35.7598672 L31.526756,35.7598672 L31.526756,25.1874271 L11.616016,25.1874271 L11.616016,35.7598672 Z M42.03395,18.4960554 C38.5994019,12.659164 35.2757006,7.00994414 31.9281856,1.32088963 C28.6152571,3.20630064 25.5211872,4.96687787 22.3466045,6.7729002 C25.7054592,12.4855188 28.9906052,18.0727426 32.3531454,23.7918133 C35.5926486,22.0197346 38.7110991,20.3138598 42.03395,18.4960554 Z M20.8826337,6.77009494 C17.5841634,4.94892424 14.3854836,3.18301704 11.0464736,1.33940431 C7.6802479,7.07390392 4.36335047,12.7242459 0.999676271,18.4548182 C4.0138005,20.1118815 6.83628177,21.6084844 9.59582704,23.2111258 C10.5602788,23.7710545 10.95292,23.4972617 11.4470527,22.6481114 C13.5168534,19.0913302 15.6504406,15.5707368 17.7579462,12.0349951 C18.7827825,10.3159356 19.8010983,8.5929488 20.8826337,6.77009494 Z M31.3348295,0.0484265558 C31.8564613,0.0607696721 32.5850447,0.459676748 32.8475616,0.897296325 C36.1485832,6.39559358 39.3696592,11.9407386 42.6457333,17.4541842 C43.0687086,18.1661576 43.1489378,18.6879348 42.6885411,19.4576964 C39.3724942,25.0005972 36.134692,30.5889431 32.8172275,36.1310023 C32.5683185,36.5467409 31.8967176,36.9554663 31.4181772,36.9593937 C24.8107474,37.0135351 18.2021837,37.0132545 11.5947539,36.9602353 C11.1096931,36.9563079 10.4244844,36.5635724 10.1769928,36.150078 C6.86122938,30.6088604 3.62484467,25.021356 0.317302586,19.4753695 C-0.13543974,18.7162678 -0.0835600617,18.1801838 0.345085145,17.4586726 C3.61889126,11.9466296 6.83684877,6.40176513 10.1350355,0.904309459 C10.3992533,0.463884629 11.1301047,0.0607696721 11.6537209,0.0487070812 C14.9561601,-0.0287179209 18.2608672,0.0094335294 21.5650074,0.0094335294 C24.8218037,0.0094335294 28.0797341,-0.0287179209 31.3348295,0.0484265558 Z" id="Fill-1" fill="#ffffff" mask="url(#mask-2)"></path>
        </g>
    </g>
</svg>
