<?xml version="1.0" encoding="UTF-8"?>
<svg width="160px" height="66px" viewBox="0 0 160 66" version="1.1" xmlns="http://www.w3.org/2000/svg" xmlns:xlink="http://www.w3.org/1999/xlink">
    <!-- Generator: Sketch 63 (92445) - https://sketch.com -->
    <title>Combined Shape</title>
    <desc>Created with Sketch.</desc>
    <g id="Page-1" stroke="none" stroke-width="1" fill="none" fill-rule="evenodd">
        <path d="M33.0118506,0.000266666668 L33.0118506,27.1789333 L56.4508548,13.5889333 L59.6415602,19.1382667 L36.2012282,32.7276 L59.6415602,46.3176 L56.4508548,51.8669333 L33.0118506,38.2769333 L33.0118506,65.4562667 L26.6304398,65.4562667 L26.6304398,38.2769333 L3.19077178,51.8669333 L6.6390052e-05,46.3176 L23.4397344,32.7276 L6.6390052e-05,19.1382667 L3.19077178,13.5889333 L26.6304398,27.1789333 L26.6304398,0.000266666668 L33.0118506,0.000266666668 Z M130.389311,41.5978 L159.651386,58.5624667 L156.461344,64.1111333 L127.198606,47.1464667 L130.389311,41.5978 Z M120.269743,41.5978667 L123.460448,47.1465333 L94.1983734,64.1112 L91.0070041,58.5625333 L120.269743,41.5978667 Z M128.519834,5.12673333 L128.519834,39.0574 L122.139087,39.0574 L122.139087,5.12673333 L128.519834,5.12673333 Z" id="Combined-Shape" fill="#000000" fill-rule="nonzero"></path>
    </g>
</svg>