<?xml version="1.0" encoding="UTF-8"?>
<svg width="328px" height="99px" viewBox="0 0 328 99" version="1.1" xmlns="http://www.w3.org/2000/svg" xmlns:xlink="http://www.w3.org/1999/xlink">
    <!-- Generator: Sketch 58 (84663) - https://sketch.com -->
    <title>Group</title>
    <desc>Created with Sketch.</desc>
    <g id="Page-1" stroke="none" stroke-width="1" fill="none" fill-rule="evenodd">
        <g id="logo-final-(1)" transform="translate(-92.000000, -248.000000)" fill="#ffffff">
            <g id="Group-207" transform="translate(92.000000, 116.276000)">
                <g id="Group" transform="translate(0.506277, 132.616877)">
                    <path d="M78.1304232,19.3600228 C77.7584232,18.9960228 77.5654232,18.5200228 77.5654232,18.0640228 C77.5654232,17.5890228 77.7584232,17.1320228 78.1304232,16.7670228 C78.8904232,16.0560228 80.1184232,16.0560228 80.8804232,16.7670228 C81.2694232,17.1320228 81.4644232,17.5890228 81.4644232,18.0640228 C81.4644232,18.5200228 81.2694232,18.9960228 80.8804232,19.3600228 C80.5084232,19.7080228 80.0024232,19.8900228 79.5144232,19.8900228 C79.0084232,19.8900228 78.5004232,19.7080228 78.1304232,19.3600228" id="Fill-3"></path>
                    <path d="M73.2203232,24.4787228 C72.8733232,24.1137228 72.6903232,23.6387228 72.6903232,23.1827228 C72.6903232,22.7077228 72.8733232,22.2517228 73.2203232,21.8857228 C73.9333232,21.1737228 75.1043232,21.1737228 75.8163232,21.8857228 C76.1643232,22.2517228 76.3463232,22.7077228 76.3463232,23.1827228 C76.3463232,23.6387228 76.1643232,24.1137228 75.8163232,24.4787228 C75.4503232,24.8267228 74.9933232,25.0077228 74.5183232,25.0077228 C74.0433232,25.0077228 73.5863232,24.8267228 73.2203232,24.4787228" id="Fill-5"></path>
                    <path d="M67.8589232,29.5788228 C67.5109232,29.2308228 67.3289232,28.7568228 67.3289232,28.2998228 C67.3289232,27.8268228 67.5109232,27.3518228 67.8589232,27.0038228 C68.5709232,26.2928228 69.7419232,26.2928228 70.4539232,27.0038228 C70.8019232,27.3518228 70.9839232,27.8268228 70.9839232,28.2998228 C70.9839232,28.7568228 70.8019232,29.2308228 70.4539232,29.5788228 C70.0879232,29.9448228 69.6309232,30.1258228 69.1569232,30.1258228 C68.6809232,30.1258228 68.2249232,29.9448228 67.8589232,29.5788228" id="Fill-7"></path>
                    <path d="M62.7754232,34.7126228 C62.4064232,34.3636228 62.2104232,33.8866228 62.2104232,33.4096228 C62.2104232,32.9506228 62.4064232,32.4746228 62.7754232,32.1246228 C63.5354232,31.4096228 64.7844232,31.4096228 65.5444232,32.1246228 C65.9154232,32.4746228 66.1094232,32.9506228 66.1094232,33.4096228 C66.1094232,33.8866228 65.9154232,34.3636228 65.5444232,34.7126228 C65.1544232,35.0796228 64.6664232,35.2446228 64.1594232,35.2446228 C63.6724232,35.2446228 63.1654232,35.0796228 62.7754232,34.7126228" id="Fill-9"></path>
                    <path d="M57.8838232,39.8327228 C57.5198232,39.4847228 57.3358232,39.0097228 57.3358232,38.5347228 C57.3358232,38.0777228 57.5198232,37.6017228 57.8838232,37.2557228 C58.5798232,36.5237228 59.7488232,36.5237228 60.4618232,37.2557228 C60.8268232,37.6017228 60.9918232,38.0777228 60.9918232,38.5347228 C60.9918232,39.0097228 60.8268232,39.4847228 60.4618232,39.8327228 C60.1148232,40.1987228 59.6378232,40.3627228 59.1638232,40.3627228 C58.7058232,40.3627228 58.2318232,40.1987228 57.8838232,39.8327228" id="Fill-11"></path>
                    <path d="M51.9742232,43.6554228 C51.9742232,43.1984228 52.1582232,42.7234228 52.5222232,42.3594228 C53.2362232,41.6474228 54.3872232,41.6474228 55.0992232,42.3594228 C55.4652232,42.7234228 55.6302232,43.1984228 55.6302232,43.6554228 C55.6302232,44.1294228 55.4652232,44.5864228 55.0992232,44.9514228 C54.7532232,45.2974228 54.2792232,45.4814228 53.8012232,45.4814228 C53.3452232,45.4814228 52.8702232,45.2974228 52.5222232,44.9514228 C52.1582232,44.5864228 51.9742232,44.1294228 51.9742232,43.6554228" id="Fill-13"></path>
                    <path d="M42.5118232,54.9255228 C42.1638232,54.5795228 41.9808232,54.1045228 41.9808232,53.6475228 C41.9808232,53.1725228 42.1638232,52.7165228 42.5118232,52.3505228 C43.2238232,51.6405228 44.3928232,51.6405228 45.0868232,52.3505228 C45.4538232,52.7165228 45.6368232,53.1725228 45.6368232,53.6475228 C45.6368232,54.1045228 45.4538232,54.5795228 45.0868232,54.9255228 C44.7408232,55.2915228 44.2658232,55.4735228 43.8088232,55.4735228 C43.3328232,55.4735228 42.8758232,55.2915228 42.5118232,54.9255228" id="Fill-15"></path>
                    <path d="M37.1856232,60.0446228 C36.8146232,59.6986228 36.6196232,59.2226228 36.6196232,58.7666228 C36.6196232,58.2916228 36.8146232,57.8356228 37.1856232,57.4696228 C37.9446232,56.7586228 39.1916232,56.7586228 39.9536232,57.4696228 C40.3226232,57.8356228 40.5186232,58.2916228 40.5186232,58.7666228 C40.5186232,59.2226228 40.3226232,59.6986228 39.9536232,60.0446228 C39.5636232,60.4106228 39.0576232,60.5926228 38.5696232,60.5926228 C38.0626232,60.5926228 37.5756232,60.4106228 37.1856232,60.0446228" id="Fill-17"></path>
                    <path d="M32.2745232,65.1774228 C31.9265232,64.8304228 31.7445232,64.3524228 31.7445232,63.8934228 C31.7445232,63.4164228 31.9265232,62.9404228 32.2745232,62.5904228 C32.9865232,61.8754228 34.1575232,61.8754228 34.8705232,62.5904228 C35.2165232,62.9404228 35.4005232,63.4164228 35.4005232,63.8934228 C35.4005232,64.3524228 35.2165232,64.8304228 34.8705232,65.1774228 C34.5045232,65.5454228 34.0475232,65.7104228 33.5725232,65.7104228 C33.0975232,65.7104228 32.6405232,65.5454228 32.2745232,65.1774228" id="Fill-19"></path>
                    <path d="M27.1744232,70.2966228 C26.8084232,69.9486228 26.6264232,69.4716228 26.6264232,68.9956228 C26.6264232,68.5376228 26.8084232,68.0626228 27.1744232,67.6946228 C27.8864232,66.9986228 29.0394232,66.9986228 29.7514232,67.6946228 C30.0994232,68.0626228 30.2824232,68.5376228 30.2824232,68.9956228 C30.2824232,69.4716228 30.0994232,69.9486228 29.7514232,70.2966228 C29.3854232,70.6636228 28.9284232,70.8286228 28.4534232,70.8286228 C27.9974232,70.8286228 27.5224232,70.6636228 27.1744232,70.2966228" id="Fill-21"></path>
                    <path d="M21.8492232,75.4147228 C21.4592232,75.0657228 21.2652232,74.5907228 21.2652232,74.1137228 C21.2652232,73.6557228 21.4592232,73.1807228 21.8492232,72.8127228 C22.6112232,72.1167228 23.8382232,72.1167228 24.5992232,72.8127228 C24.9892232,73.1807228 25.1642232,73.6557228 25.1642232,74.1137228 C25.1642232,74.5907228 24.9892232,75.0657228 24.5992232,75.4147228 C24.2272232,75.7647228 23.7212232,75.9467228 23.2142232,75.9467228 C22.7262232,75.9467228 22.2202232,75.7647228 21.8492232,75.4147228" id="Fill-23"></path>
                    <path d="M16.9195232,80.5358228 C16.5535232,80.1708228 16.3905232,79.7138228 16.3905232,79.2398228 C16.3905232,78.7648228 16.5535232,78.3088228 16.9195232,77.9438228 C17.6345232,77.2308228 18.7845232,77.2308228 19.4975232,77.9438228 C19.8625232,78.3088228 20.0455232,78.7648228 20.0455232,79.2398228 C20.0455232,79.7138228 19.8625232,80.1708228 19.4975232,80.5358228 C19.1515232,80.8808228 18.6745232,81.0648228 18.2175232,81.0648228 C17.7425232,81.0648228 17.2675232,80.8808228 16.9195232,80.5358228" id="Fill-25"></path>
                    <path d="M19.5162232,19.3600228 C19.8642232,18.9960228 20.0462232,18.5200228 20.0462232,18.0640228 C20.0462232,17.5890228 19.8642232,17.1320228 19.5162232,16.7670228 C18.8042232,16.0560228 17.6522232,16.0560228 16.9382232,16.7670228 C16.5742232,17.1320228 16.3902232,17.5890228 16.3902232,18.0640228 C16.3902232,18.5200228 16.5742232,18.9960228 16.9382232,19.3600228 C17.2862232,19.7080228 17.7612232,19.8900228 18.2182232,19.8900228 C18.6932232,19.8900228 19.1692232,19.7080228 19.5162232,19.3600228" id="Fill-27"></path>
                    <path d="M24.5992232,24.4787228 C24.9702232,24.1137228 25.1642232,23.6387228 25.1642232,23.1827228 C25.1642232,22.7077228 24.9702232,22.2517228 24.5992232,21.8857228 C23.8392232,21.1737228 22.5902232,21.1737228 21.8302232,21.8857228 C21.4592232,22.2517228 21.2652232,22.7077228 21.2652232,23.1827228 C21.2652232,23.6387228 21.4592232,24.1137228 21.8302232,24.4787228 C22.2202232,24.8267228 22.7082232,25.0077228 23.2152232,25.0077228 C23.7212232,25.0077228 24.2092232,24.8267228 24.5992232,24.4787228" id="Fill-29"></path>
                    <path d="M29.7520232,29.5788228 C30.1000232,29.2308228 30.2820232,28.7568228 30.2820232,28.2998228 C30.2820232,27.8268228 30.1000232,27.3518228 29.7520232,27.0038228 C29.0400232,26.2928228 27.8690232,26.2928228 27.1570232,27.0038228 C26.8100232,27.3518228 26.6270232,27.8268228 26.6270232,28.2998228 C26.6270232,28.7568228 26.8100232,29.2308228 27.1570232,29.5788228 C27.5230232,29.9448228 27.9800232,30.1258228 28.4550232,30.1258228 C28.9300232,30.1258228 29.3860232,29.9448228 29.7520232,29.5788228" id="Fill-31"></path>
                    <path d="M34.8711232,34.7126228 C35.2171232,34.3636228 35.4001232,33.8866228 35.4001232,33.4096228 C35.4001232,32.9506228 35.2171232,32.4746228 34.8711232,32.1246228 C34.1581232,31.4096228 32.9881232,31.4096228 32.2751232,32.1246228 C31.9271232,32.4746228 31.7451232,32.9506228 31.7451232,33.4096228 C31.7451232,33.8866228 31.9271232,34.3636228 32.2751232,34.7126228 C32.6411232,35.0796228 33.0981232,35.2446228 33.5731232,35.2446228 C34.0301232,35.2446228 34.5051232,35.0796228 34.8711232,34.7126228" id="Fill-33"></path>
                    <path d="M39.9341232,39.8327228 C40.3231232,39.4847228 40.5191232,39.0097228 40.5191232,38.5347228 C40.5191232,38.0777228 40.3231232,37.6017228 39.9341232,37.2557228 C39.1911232,36.5237228 37.9451232,36.5237228 37.1851232,37.2557228 C36.7951232,37.6017228 36.6191232,38.0777228 36.6191232,38.5347228 C36.6191232,39.0097228 36.7951232,39.4847228 37.1851232,39.8327228 C37.5541232,40.1987228 38.0631232,40.3627228 38.5691232,40.3627228 C39.0571232,40.3627228 39.5631232,40.1987228 39.9341232,39.8327228" id="Fill-35"></path>
                    <path d="M45.6373232,43.6554228 C45.6373232,43.1984228 45.4523232,42.7234228 45.0893232,42.3594228 C44.3743232,41.6474228 43.2243232,41.6474228 42.5123232,42.3594228 C42.1463232,42.7234228 41.9813232,43.1984228 41.9813232,43.6554228 C41.9813232,44.1294228 42.1463232,44.5864228 42.5123232,44.9514228 C42.8573232,45.2974228 43.3323232,45.4814228 43.8093232,45.4814228 C44.2663232,45.4814228 44.7413232,45.2974228 45.0893232,44.9514228 C45.4523232,44.5864228 45.6373232,44.1294228 45.6373232,43.6554228" id="Fill-37"></path>
                    <path d="M50.2222232,50.0700228 C50.5902232,49.7050228 50.7552232,49.2480228 50.7552232,48.7740228 C50.7552232,48.2980228 50.5902232,47.8410228 50.2222232,47.4780228 C49.5062232,46.7650228 48.3492232,46.7650228 47.6332232,47.4780228 C47.2642232,47.8410228 47.0992232,48.2980228 47.0992232,48.7740228 C47.0992232,49.2480228 47.2642232,49.7050228 47.6332232,50.0700228 C47.9802232,50.4160228 48.4582232,50.5990228 48.9172232,50.5990228 C49.3972232,50.5990228 49.8742232,50.4160228 50.2222232,50.0700228" id="Fill-39"></path>
                    <path d="M55.3082232,54.9255228 C55.6792232,54.5795228 55.8732232,54.1045228 55.8732232,53.6475228 C55.8732232,53.1725228 55.6792232,52.7165228 55.3082232,52.3505228 C54.5482232,51.6405228 53.3012232,51.6405228 52.5602232,52.3505228 C52.1702232,52.7165228 51.9742232,53.1725228 51.9742232,53.6475228 C51.9742232,54.1045228 52.1702232,54.5795228 52.5602232,54.9255228 C52.9302232,55.2915228 53.4362232,55.4735228 53.9242232,55.4735228 C54.4322232,55.4735228 54.9192232,55.2915228 55.3082232,54.9255228" id="Fill-41"></path>
                    <path d="M60.4610232,60.0446228 C60.8090232,59.6986228 60.9920232,59.2226228 60.9920232,58.7666228 C60.9920232,58.2916228 60.8090232,57.8356228 60.4610232,57.4696228 C59.7490232,56.7586228 58.5810232,56.7586228 57.8660232,57.4696228 C57.5200232,57.8356228 57.3360232,58.2916228 57.3360232,58.7666228 C57.3360232,59.2226228 57.5200232,59.6986228 57.8660232,60.0446228 C58.2320232,60.4106228 58.7070232,60.5926228 59.1640232,60.5926228 C59.6380232,60.5926228 60.0950232,60.4106228 60.4610232,60.0446228" id="Fill-43"></path>
                    <path d="M65.5801232,65.1774228 C65.9291232,64.8304228 66.1101232,64.3524228 66.1101232,63.8934228 C66.1101232,63.4164228 65.9291232,62.9404228 65.5801232,62.5904228 C64.8681232,61.8754228 63.6971232,61.8754228 62.9841232,62.5904228 C62.6381232,62.9404228 62.4541232,63.4164228 62.4541232,63.8934228 C62.4541232,64.3524228 62.6381232,64.8304228 62.9841232,65.1774228 C63.3501232,65.5454228 63.8081232,65.7104228 64.2821232,65.7104228 C64.7571232,65.7104228 65.2141232,65.5454228 65.5801232,65.1774228" id="Fill-45"></path>
                    <path d="M70.4366232,70.2966228 C70.8026232,69.9486228 70.9846232,69.4716228 70.9846232,68.9956228 C70.9846232,68.5376228 70.8026232,68.0626228 70.4366232,67.6946228 C69.7246232,66.9986228 68.5716232,66.9986228 67.8596232,67.6946228 C67.5116232,68.0626228 67.3286232,68.5376228 67.3286232,68.9956228 C67.3286232,69.4716228 67.5116232,69.9486228 67.8596232,70.2966228 C68.2256232,70.6636228 68.6826232,70.8286228 69.1576232,70.8286228 C69.6136232,70.8286228 70.0896232,70.6636228 70.4366232,70.2966228" id="Fill-47"></path>
                    <path d="M75.7989232,75.4147228 C76.1649232,75.0657228 76.3469232,74.5907228 76.3469232,74.1137228 C76.3469232,73.6557228 76.1649232,73.1807228 75.7989232,72.8127228 C75.0839232,72.1167228 73.9339232,72.1167228 73.2209232,72.8127228 C72.8549232,73.1807228 72.6909232,73.6557228 72.6909232,74.1137228 C72.6909232,74.5907228 72.8549232,75.0657228 73.2209232,75.4147228 C73.5689232,75.7647228 74.0439232,75.9467228 74.5189232,75.9467228 C74.9759232,75.9467228 75.4509232,75.7647228 75.7989232,75.4147228" id="Fill-49"></path>
                    <path d="M80.8999232,80.5358228 C81.2899232,80.1708228 81.4649232,79.7138228 81.4649232,79.2398228 C81.4649232,78.7648228 81.2899232,78.3088228 80.8999232,77.9438228 C80.1379232,77.2308228 78.9099232,77.2308228 78.1499232,77.9438228 C77.7599232,78.3088228 77.5649232,78.7648228 77.5649232,79.2398228 C77.5649232,79.7138228 77.7599232,80.1708228 78.1499232,80.5358228 C78.5199232,80.8808228 79.0279232,81.0648228 79.5159232,81.0648228 C80.0219232,81.0648228 80.5279232,80.8808228 80.8999232,80.5358228" id="Fill-51"></path>
                    <path d="M31.5748232,20.7370228 C36.7378232,17.3840228 42.4528232,15.6920228 48.7268232,15.6790228 C54.9198232,15.6660228 60.6428232,17.3700228 65.8978232,20.7730228 L76.9038232,9.80802284 C68.3468232,3.26302284 58.9588232,-0.009977155 48.7358232,0 C38.4598232,0.010022845 29.0778232,3.27502284 20.5868232,9.78902284 L31.5748232,20.7370228 Z" id="Fill-53"></path>
                    <path d="M20.5870232,65.7643228 C17.1170232,60.4763228 15.3790232,54.7633228 15.3900232,48.6183228 C15.4020232,42.3913228 17.1290232,36.6833228 20.5510232,31.4853228 L9.63602317,20.5363228 C3.22302317,28.9183228 0.0110231696,38.2813228 0,48.6243228 C-0.00997683035,58.8733228 3.21702317,68.2363228 9.66802317,76.7173228 L20.5870232,65.7643228 Z" id="Fill-55"></path>
                    <path d="M65.9712232,76.7175228 C60.7522232,80.2365228 55.0452232,82.0255228 48.8432232,82.0685228 C42.5412232,82.1105228 36.7632232,80.3335228 31.5052232,76.7525228 L20.5872232,87.6885228 C29.0782232,94.3005228 38.5162232,97.5715228 48.9062232,97.4885228 C59.1922232,97.4075228 68.5252232,94.1335228 76.9042232,87.6675228 L65.9712232,76.7175228 Z" id="Fill-57"></path>
                    <path d="M76.6885232,31.4958228 C80.2135232,36.7988228 81.9455232,42.6098228 81.8695232,48.9288228 C81.7965232,55.0258228 80.0575232,60.6388228 76.6675232,65.7698228 L87.6555232,76.7178228 C94.1275232,68.3238228 97.4075232,59.0168228 97.4885232,48.7938228 C97.5715232,38.4278228 94.3005232,29.0098228 87.6885232,20.5368228 L76.6885232,31.4958228 Z" id="Fill-59"></path>
                    <path d="M88.1670232,80.0905228 C92.4070232,80.0905228 95.8450232,83.5285228 95.8450232,87.7675228 C95.8450232,92.0065228 92.4070232,95.4445228 88.1670232,95.4445228 C83.9270232,95.4445228 80.4900232,92.0065228 80.4900232,87.7675228 C80.4900232,83.5285228 83.9270232,80.0905228 88.1670232,80.0905228" id="Fill-61"></path>
                    <path d="M9.56552317,80.0905228 C13.7375232,80.0905228 17.1215232,83.5275228 17.1215232,87.7675228 C17.1215232,92.0075228 13.7375232,95.4445228 9.56552317,95.4445228 C5.39252317,95.4445228 2.01052317,92.0075228 2.01052317,87.7675228 C2.01052317,83.5275228 5.39252317,80.0905228 9.56552317,80.0905228" id="Fill-63"></path>
                    <path d="M88.2891232,1.61052284 C92.4611232,1.61052284 95.8451232,5.04752284 95.8451232,9.28752284 C95.8451232,13.5275228 92.4611232,16.9645228 88.2891232,16.9645228 C84.1171232,16.9645228 80.7331232,13.5275228 80.7331232,9.28752284 C80.7331232,5.04752284 84.1171232,1.61052284 88.2891232,1.61052284" id="Fill-65"></path>
                    <path d="M9.44392317,1.61052284 C13.6839232,1.61052284 17.1209232,4.99252284 17.1209232,9.16552284 C17.1209232,13.3385228 13.6839232,16.7215228 9.44392317,16.7215228 C5.20392317,16.7215228 1.76692317,13.3385228 1.76692317,9.16552284 C1.76692317,4.99252284 5.20392317,1.61052284 9.44392317,1.61052284" id="Fill-67"></path>
                    <path d="M308.767623,43.0885228 C315.479623,43.1045228 320.817623,48.0435228 320.817623,55.3095228 C320.817623,62.7235228 315.530623,67.6665228 308.802623,67.6665228 C302.211623,67.6665228 296.856623,63.2045228 296.856623,55.3775228 C296.856623,47.5075228 302.086623,43.1905228 308.570623,43.0895228 L308.767623,43.0885228 Z M326.583623,24.3455228 L321.022623,24.3455228 L321.022623,44.6675228 C318.620623,40.0675228 313.127623,37.8705228 308.321623,37.8705228 C298.709623,37.8705228 291.226623,44.0495228 291.226623,55.4455228 C291.226623,66.6375228 298.709623,73.0225228 308.390623,73.0225228 C313.402623,73.0225228 318.345623,70.8245228 321.091623,66.1565228 L321.366623,72.3355228 L326.652623,72.3355228 L326.652623,24.2765228 L326.583623,24.3455228 Z M251.543623,38.4195228 L251.543623,72.4035228 L257.104623,72.4035228 L257.104623,54.2105228 C257.104623,48.1005228 261.361623,43.2255228 267.540623,43.1565228 C273.994623,43.1565228 277.838623,47.2075228 277.838623,53.7305228 L277.838623,72.4035228 L283.468623,72.4035228 L283.468623,53.6605228 C283.468623,43.7065228 277.152623,37.9395228 268.570623,37.9395228 C264.039623,37.9395228 259.919623,39.7935228 256.967623,43.8435228 L256.693623,38.4195228 L251.543623,38.4195228 Z M237.881623,55.5155228 C237.812623,62.6545228 232.801623,67.7355228 225.798623,67.7355228 C218.864623,67.7355228 213.852623,62.6545228 213.852623,55.5155228 C213.852623,47.9635228 218.933623,42.8825228 225.867623,42.8825228 C232.663623,42.8825228 237.881623,47.9635228 237.881623,55.5155228 L237.881623,55.5155228 Z M208.222623,55.5155228 C208.222623,65.8135228 215.637623,73.0225228 225.798623,73.0225228 C236.028623,73.0225228 243.442623,65.8135228 243.442623,55.5155228 C243.442623,45.0105228 236.165623,37.7335228 225.798623,37.7335228 C215.705623,37.7335228 208.222623,45.0105228 208.222623,55.5155228 L208.222623,55.5155228 Z M186.252623,38.4885228 L181.035623,38.4885228 L181.035623,72.4035228 L186.664623,72.4035228 L186.664623,53.5245228 C186.664623,47.2765228 191.196623,43.4315228 196.620623,43.3625228 C198.954623,43.3625228 200.739623,43.9815228 202.524623,45.2165228 L205.064623,40.4105228 C203.004623,38.8315228 200.121623,37.8015228 197.169623,37.8705228 C193.255623,37.8705228 189.067623,39.1065228 186.733623,43.5005228 L186.321623,38.4195228 L186.252623,38.4885228 Z M164.695623,72.4045228 L170.325623,72.4045228 L170.325623,24.3455228 L164.695623,24.3455228 L164.695623,72.4045228 Z M151.098623,52.9055228 L127.621623,52.9055228 C128.582623,46.3835228 133.731623,42.8135228 139.636623,42.8135228 C146.205623,42.8135228 150.705623,46.2885228 151.088623,52.7105228 L151.098623,52.9055228 Z M154.465623,66.9805228 L150.689623,63.5475228 C148.424623,66.2935228 143.755623,67.8045228 139.910623,67.8045228 C133.388623,67.8045228 128.239623,63.8915228 127.621623,57.6435228 L156.456623,57.6435228 C157.761623,44.1185228 149.865623,37.7335228 139.498623,37.7335228 C129.269623,37.7335228 121.923623,45.0795228 121.923623,55.3095228 C121.923623,66.0875228 129.269623,73.0225228 139.773623,73.0225228 C145.059623,73.0225228 150.964623,71.0305228 154.396623,66.9805228 L154.465623,66.9805228 Z" id="Fill-69"></path>
                </g>
            </g>
        </g>
    </g>
</svg>
