<?xml version="1.0" encoding="UTF-8"?>
<svg width="64px" height="64px" viewBox="0 0 64 64" version="1.1" xmlns="http://www.w3.org/2000/svg" xmlns:xlink="http://www.w3.org/1999/xlink">
    <!-- Generator: Sketch 63 (92445) - https://sketch.com -->
    <title>fio@2x</title>
    <desc>Created with Sketch.</desc>
    <g id="fio" stroke="none" stroke-width="1" fill="none" fill-rule="evenodd">
        <path d="M21,33.5505529 C21.1477318,33.6560755 21.2954635,33.7615982 21.4642998,33.8460164 L21.4642998,33.8460164 L33.1351085,39.7974957 L33.1351085,56.7444385 C33.1351085,57.6519335 32.565286,58.0740243 31.8688363,57.6941426 L31.8688363,57.6941426 L22.2662722,52.439113 C21.4854043,51.9114996 21.0211045,51.0462136 21,50.117614 L21,50.117614 Z M36.146804,25.1790867 L36.1952663,25.1931564 L41.3447732,27.8312235 L41.4866933,27.9334032 C42.0373516,28.3608349 42.3805189,29.0082072 42.4,29.7095272 L42.4,29.7095272 L42.4,41.6757994 C42.4,42.4355627 41.9357002,42.7732353 41.3447732,42.4777718 L41.3447732,42.4777718 L22.0974359,32.6008487 L22.0763314,32.6008487 C21.9708087,32.5375351 21.865286,32.453117 21.7597633,32.3686988 C21.9708087,32.3475943 22.181854,32.3053852 22.3717949,32.1998625 L22.3717949,32.1998625 L35.6887574,25.3619927 L36.02643,25.1931564 C36.0897436,25.1720519 36.1530572,25.1720519 36.1952663,25.1931564 Z M21.6753452,17.8487777 C21.8019724,17.8487777 21.9497041,17.8909868 22.0552268,17.9543004 L22.0552268,17.9543004 L35.435503,24.7921702 L22.0763314,31.63004 C21.9708087,31.6933536 21.8230769,31.7355627 21.6964497,31.7355627 C21.4009862,31.7355627 21.1477318,31.5245174 21.0844181,31.2501584 C21.0422091,31.1024266 21.0211045,30.9546949 21.0211045,30.8069631 L21.0211045,30.8069631 L21.0218862,19.2346423 C21.0234495,18.929799 21.0281394,18.6718546 21.0422091,18.4608093 C21.1266272,18.0598231 21.3587771,17.8487777 21.6753452,17.8487777 Z M41.3447732,7.10656864 C41.9145957,6.81110513 42.4,7.14877771 42.3788955,7.88743649 L42.3788955,7.88743649 L42.3788955,19.8959178 C42.3577909,20.6556811 41.9568047,21.3732353 41.3236686,21.7742215 L41.3236686,21.7742215 L36.1108481,24.4544976 L35.7098619,24.2434523 L22.3506903,17.3844779 C22.1607495,17.2789552 21.9497041,17.2367462 21.7386588,17.2156416 C22.3506903,16.83576 22.9627219,16.4980874 23.595858,16.2026239 L23.595858,16.2026239 Z" id="Combined-Shape" fill="#000000" fill-rule="nonzero"></path>
    </g>
</svg>