<?xml version="1.0" encoding="UTF-8"?>
<svg width="55px" height="55px" viewBox="0 0 55 55" version="1.1" xmlns="http://www.w3.org/2000/svg" xmlns:xlink="http://www.w3.org/1999/xlink">
    <!-- Generator: Sketch 63 (92445) - https://sketch.com -->
    <title>Shape</title>
    <desc>Created with Sketch.</desc>
    <g id="Page-1" stroke="none" stroke-width="1" fill="none" fill-rule="evenodd">
        <g id="ICON_Page" transform="translate(-221.000000, -202.000000)" fill="#222222">
            <g id="Block---1" transform="translate(130.000000, 133.000000)">
                <g id="Group-2" transform="translate(50.000000, 28.000000)">
                    <path d="M86.1460625,55.3914375 L80.1875,61.35 C81.5133074,63.5155675 82.2114111,66.006891 82.2039375,68.5460625 C82.2039375,76.1539375 76.0625,82.2960625 68.4539375,82.2960625 C65.8414375,82.2960625 63.3664375,81.5625 61.2585625,80.2789375 L55.3,86.2375 C58.9664375,88.9414375 63.5039375,90.5914375 68.4085625,90.5914375 C80.5539375,90.5914375 90.4085625,80.7375 90.4085625,68.5914375 C90.5,63.5960625 88.8960625,59.0585625 86.1460625,55.3914375 M54.75,68.5 C54.75,60.8914375 60.8914375,54.75 68.5,54.75 C71.1125,54.75 73.5875,55.4835625 75.6960625,56.7664375 L81.6539375,50.8085625 C77.9875,48.1039375 73.45,46.4539375 68.5460625,46.4539375 C56.4,46.4539375 46.5460625,56.3085625 46.5460625,68.4539375 C46.5460625,73.3585625 48.15,77.8960625 50.9,81.5625 L56.8585625,75.6039375 C55.4835625,73.5875 54.75,71.1125 54.75,68.5 M90.5,41 C93.5375661,41 96,43.4624339 96,46.5 C96,49.5375661 93.5375661,52 90.5,52 C87.4624339,52 85,49.5375661 85,46.5 C85,43.4624339 87.4624339,41 90.5,41 M46.5,85 C49.5375661,85 52,87.4624339 52,90.5 C52,93.5375661 49.5375661,96 46.5,96 C43.4624339,96 41,93.5375661 41,90.5 C41,87.4624339 43.4624339,85 46.5,85" id="Shape"></path>
                </g>
            </g>
        </g>
    </g>
</svg>