<?xml version="1.0" encoding="UTF-8"?>
<svg width="238px" height="220px" viewBox="0 0 238 220" version="1.1" xmlns="http://www.w3.org/2000/svg" xmlns:xlink="http://www.w3.org/1999/xlink">
    <!-- Generator: Sketch 63 (92445) - https://sketch.com -->
    <title>Fill 1</title>
    <desc>Created with Sketch.</desc>
    <g id="Page-1" stroke="none" stroke-width="1" fill="none" fill-rule="evenodd">
        <g id="Artboard" transform="translate(-81.000000, -90.000000)" fill="#FFFFFF">
            <path d="M199.84298,90 L175.226502,157.118383 L175.008543,157.2182 L81,200.101698 L153.580294,222.86143 L200.062903,310 L224.731416,242.931688 L224.951338,242.829909 L318.961682,199.94821 L246.379588,177.186678 L199.84298,90 Z M201.272152,109.510142 L238.084043,178.508506 L163.470935,212.548943 L201.272152,109.510142 Z M153.470332,214.988877 L102.096401,198.881813 L103.251979,198.373405 L171.60252,167.177566 L153.964177,215.192273 L153.470332,214.988877 Z M166.984956,219.25512 L168.14037,218.746875 L243.742967,184.249575 L297.861353,201.218003 L296.71003,201.726411 L221.105305,236.223712 L166.984956,219.25512 Z M164.458297,226.419796 L216.27191,242.574968 L198.689694,290.589674 L164.458297,226.419796 Z" id="Fill-1"></path>
        </g>
    </g>
</svg>