<?xml version="1.0" encoding="UTF-8"?>
<svg width="38px" height="33px" viewBox="0 0 38 33" version="1.1" xmlns="http://www.w3.org/2000/svg" xmlns:xlink="http://www.w3.org/1999/xlink">
    <!-- Generator: Sketch 63 (92445) - https://sketch.com -->
    <title>Path</title>
    <desc>Created with Sketch.</desc>
    <g id="Page-1" stroke="none" stroke-width="1" fill="none" fill-rule="evenodd">
        <g id="polygon_logo-Dark" fill="#000000" fill-rule="nonzero">
            <path d="M28.5663,10.0942 C27.8679,9.67646 26.9599,9.67646 26.1916,10.0942 L20.7437,13.2967 L17.042,15.3853 L11.5941,18.5879 C10.8957,19.0056 9.98773,19.0056 9.21944,18.5879 L4.8891,16.0815 C4.19066,15.6638 3.70175,14.898 3.70175,14.0625 L3.70175,9.1195 C3.70175,8.28406 4.12081,7.51824 4.8891,7.10051 L9.1496,4.66381 C9.84804,4.24608 10.756,4.24608 11.5243,4.66381 L15.7848,7.10051 C16.4832,7.51824 16.9722,8.28406 16.9722,9.1195 L16.9722,12.322 L20.6739,10.1638 L20.6739,6.96127 C20.6739,6.12583 20.2548,5.36001 19.4865,4.94229 L11.5941,0.347349 C10.8957,-0.0703728 9.98773,-0.0703728 9.21944,0.347349 L1.18735,4.94229 C0.419066,5.36001 0,6.12583 0,6.96127 L0,16.2208 C0,17.0562 0.419066,17.822 1.18735,18.2398 L9.21944,22.8347 C9.91789,23.2524 10.8259,23.2524 11.5941,22.8347 L17.042,19.7018 L20.7437,17.5436 L26.1916,14.4106 C26.89,13.9929 27.798,13.9929 28.5663,14.4106 L32.8268,16.8474 C33.5252,17.2651 34.0142,18.0309 34.0142,18.8663 L34.0142,23.8094 C34.0142,24.6448 33.5951,25.4106 32.8268,25.8284 L28.5663,28.3347 C27.8679,28.7524 26.9599,28.7524 26.1916,28.3347 L21.9311,25.898 C21.2327,25.4803 20.7437,24.7144 20.7437,23.879 L20.7437,20.6765 L17.042,22.8347 L17.042,26.0372 C17.042,26.8727 17.4611,27.6385 18.2294,28.0562 L26.2614,32.6512 C26.9599,33.0689 27.8679,33.0689 28.6361,32.6512 L36.6682,28.0562 C37.3667,27.6385 37.8556,26.8727 37.8556,26.0372 L37.8556,16.7777 C37.8556,15.9423 37.4365,15.1765 36.6682,14.7587 L28.5663,10.0942 Z" id="Path"></path>
        </g>
    </g>
</svg>