<?xml version="1.0" standalone="no"?>
<!DOCTYPE svg PUBLIC "-//W3C//DTD SVG 20010904//EN"
 "http://www.w3.org/TR/2001/REC-SVG-20010904/DTD/svg10.dtd">
<svg version="1.0" xmlns="http://www.w3.org/2000/svg"
 width="122.000000pt" height="34.000000pt" viewBox="0 0 122.000000 34.000000"
 preserveAspectRatio="xMidYMid meet">

<g transform="translate(0.000000,34.000000) scale(0.100000,-0.100000)"
fill="#000000" stroke="none">
<path d="M110 170 l0 -130 115 0 c94 0 115 3 115 15 0 11 -20 15 -102 17
l-103 3 0 95 0 95 103 3 c82 2 102 6 102 17 0 12 -21 15 -115 15 l-115 0 0
-130z"/>
<path d="M301 236 c-23 -27 -9 -60 29 -72 19 -7 35 -18 35 -25 0 -21 -37 -24
-51 -4 -17 23 -38 10 -24 -15 20 -37 80 -37 100 1 15 27 -3 56 -40 64 -16 4
-30 13 -30 21 0 17 31 19 48 2 16 -16 29 -1 16 20 -14 22 -67 27 -83 8z"/>
<path d="M460 175 c0 -60 3 -75 15 -75 12 0 15 15 15 75 0 60 -3 75 -15 75
-12 0 -15 -15 -15 -75z"/>
<path d="M531 216 c-28 -44 -27 -58 9 -96 39 -42 48 -33 19 18 l-23 39 22 30
c26 36 27 43 8 43 -8 0 -24 -15 -35 -34z"/>
<path d="M657 179 c-12 -51 -14 -76 -7 -83 8 -8 12 -4 16 12 8 29 49 30 65 1
22 -41 28 -3 10 66 -15 61 -20 70 -42 73 -23 3 -26 -2 -42 -69z m57 9 c5 -24
3 -28 -15 -28 -15 0 -19 4 -15 16 3 9 6 25 6 37 0 27 15 11 24 -25z"/>
<path d="M837 243 c-8 -7 -10 -137 -3 -144 8 -8 96 3 96 11 0 5 -15 10 -32 12
-33 3 -33 3 -36 66 -3 58 -9 72 -25 55z"/>
<path d="M1000 175 l0 -75 45 0 c52 0 61 17 13 22 -32 3 -33 5 -36 51 l-3 47
35 0 c25 0 36 4 36 15 0 11 -12 15 -45 15 l-45 0 0 -75z"/>
<path d="M1050 175 c0 -8 5 -15 10 -15 6 0 10 7 10 15 0 8 -4 15 -10 15 -5 0
-10 -7 -10 -15z"/>
</g>
</svg>
