<?xml version="1.0" encoding="UTF-8"?>
<svg width="400px" height="400px" viewBox="0 0 400 400" version="1.1" xmlns="http://www.w3.org/2000/svg" xmlns:xlink="http://www.w3.org/1999/xlink">
    <!-- Generator: Sketch 63 (92445) - https://sketch.com -->
    <title>Artboard</title>
    <desc>Created with Sketch.</desc>
    <g id="Artboard" stroke="none" stroke-width="1" fill="none" fill-rule="evenodd">
        <g id="light-horizontal-combined-green" transform="translate(42.000000, 71.000000)" fill="#111111" fill-rule="nonzero">
            <path d="M308.626982,195.346762 C317.714009,195.346762 322.264358,206.333375 315.839487,212.759006 L272.970809,255.627683 C271.058311,257.540182 268.463754,258.614918 265.758305,258.614918 L10.2194868,258.614918 C1.18790616,258.614918 -3.3867478,247.742235 2.92723167,241.284704 L44.8426979,198.416026 C46.7620323,196.453399 49.3907683,195.346762 52.1357126,195.346762 L308.626982,195.346762 Z M265.758305,97.927824 C268.463754,97.927824 271.058311,99.0025601 272.970809,100.915059 L272.970809,100.915059 L315.839487,143.783736 C322.264358,150.209367 317.714009,161.19522 308.626982,161.19522 L308.626982,161.19522 L52.1357126,161.19522 C49.3907683,161.19522 46.7620323,160.089343 44.8426979,158.126716 L44.8426979,158.126716 L2.92723167,115.258038 C-3.3867478,108.800507 1.18790616,97.927824 10.2194868,97.927824 L10.2194868,97.927824 Z M308.626982,0.58483871 C317.714009,0.58483871 322.264358,11.5714516 315.839487,17.9970821 L272.970809,60.865 C271.058311,62.7782581 268.463754,63.8529941 265.758305,63.8529941 L10.2194868,63.8529941 C1.18790616,63.8529941 -3.3867478,52.9803109 2.92723167,46.5227801 L44.8426979,3.65410264 C46.7620323,1.69147507 49.3907683,0.58483871 52.1357126,0.58483871 L308.626982,0.58483871 Z" id="Combined-Shape"></path>
        </g>
    </g>
</svg>