<?xml version="1.0" encoding="UTF-8"?>
<svg width="45px" height="13px" viewBox="0 0 45 13" version="1.1" xmlns="http://www.w3.org/2000/svg" xmlns:xlink="http://www.w3.org/1999/xlink">
    <!-- Generator: Sketch 52.5 (67469) - http://www.bohemiancoding.com/sketch -->
    <title>Tera</title>
    <desc>Created with Sketch.</desc>
    <g id="Tera" stroke="none" stroke-width="1" fill="none" fill-rule="evenodd">
        <path d="M26.7815004,3.13638974 L26.7810872,3.13678529 C26.9229755,3.14614864 27.0636618,3.16799635 27.2013647,3.20205178 L27.2013647,5.5488765 C27.0108554,5.48914778 26.8261317,5.44524123 26.6467802,5.41794797 C26.4674287,5.39065471 26.2769194,5.37443698 26.0752522,5.37443698 C25.5706712,5.37443698 25.1731225,5.44524123 24.8813664,5.58131197 C24.5846512,5.71817382 24.3606685,5.90922663 24.2036326,6.15486596 C24.0465967,6.40010974 23.9399776,6.69479783 23.8953464,7.03893022 C23.8449296,7.38266707 23.822614,7.75923493 23.822614,8.16863381 L23.822614,11.6447666 L21.1831716,11.6447666 L21.1831716,3.32230034 L23.8230272,3.32230034 L23.8230272,4.25541336 C24.2879361,3.78628575 24.8259905,3.33851808 25.6665457,3.18029629 C25.8739984,3.14232306 26.08641,3.12056756 26.3219639,3.12056756 C26.5914044,3.12056756 26.7199258,3.13124753 26.7815004,3.13638974 Z M33.9282856,3.13638974 L33.9282856,3.13678529 C34.0701739,3.14614864 34.2108602,3.16799635 34.3485632,3.20205178 L34.3485632,5.5488765 C34.1580539,5.48914778 33.9733301,5.44524123 33.7939786,5.41794797 C33.6146271,5.39065471 33.4241178,5.37443698 33.2224507,5.37443698 C32.7178696,5.37443698 32.3203209,5.44524123 32.0285648,5.58131197 C31.7318497,5.71817382 31.5078669,5.90922663 31.350831,6.15486596 C31.1937952,6.40010974 31.0871761,6.69479783 31.0425448,7.03893022 C30.992128,7.38266707 30.9698124,7.75923493 30.9698124,8.16863381 L30.9698124,11.6447666 L28.33037,11.6447666 L28.33037,3.32230034 L30.9698124,3.32230034 L30.9698124,4.25541336 C31.4347213,3.78628575 31.9727757,3.33851808 32.8133309,3.18029629 C33.0203703,3.14232306 33.2331952,3.12056756 33.4687491,3.12056756 C33.7381896,3.12056756 33.866711,3.13124753 33.9282856,3.13638974 Z M5.65852257,3.27285603 L2,3.27285603 L2,1 L12.1387318,1 L12.1387318,3.27285603 L8.47979599,3.27285603 L8.47979599,11.6032334 L5.65852257,11.6032334 L5.65852257,3.27285603 Z M17.3184361,6.8158375 C17.3300072,6.39496753 17.1812363,6.03263963 16.8729501,5.72924934 C16.5642507,5.43060571 16.1642224,5.27633947 15.6728655,5.27633947 C15.3761503,5.27633947 15.1133218,5.3186638 14.8843801,5.40924577 C14.6558516,5.5002233 14.461623,5.61176966 14.3016943,5.75021373 C14.1417657,5.8886578 14.016137,6.04885736 13.9248082,6.23516352 C13.8348781,6.41563118 13.7823892,6.61108774 13.7702519,6.81069529 L17.3184361,6.81069529 L17.3184361,6.8158375 Z M19.5925635,10.3963966 C19.1640208,10.9078486 18.615635,11.3022164 17.9643494,11.5842467 C17.3072783,11.8611349 16.627065,11.9999745 15.9187506,11.9999745 C15.2501084,11.9999745 14.6215516,11.8987125 14.0277081,11.7017264 C13.4334513,11.4992025 12.9247377,11.2167766 12.4850372,10.8386265 C12.0478193,10.4627595 11.697472,10.0035989 11.4564523,9.49057688 C11.2051949,8.96844497 11.0791529,8.38223323 11.0791529,7.73787499 C11.0791529,7.09312119 11.2051949,6.50690945 11.4564523,5.98477754 C11.7003377,5.47335569 12.0502838,5.01472097 12.4850372,4.63672788 C12.9189522,4.26411556 13.4334513,3.9761519 14.0277081,3.773628 C14.6215516,3.57149966 15.2501084,3.47537993 15.9187506,3.47537993 C16.5415218,3.47537993 17.1072642,3.57664187 17.609779,3.773628 C18.1019859,3.96576174 18.5431833,4.26063045 18.9011924,4.63672788 C19.2553496,5.00973575 19.5239636,5.45750342 19.7181922,5.98477754 C19.9066352,6.50690945 20.0037495,7.09312119 20.0037495,7.73787499 L20.0037495,8.52107285 L13.7702519,8.52107285 C13.8789372,9.00048488 14.1132513,9.38377717 14.4674085,9.66620307 C14.8273513,9.94862897 15.2674649,10.0926108 15.7931219,10.0926108 C16.2328223,10.0926108 16.6101217,10.0020288 16.9130356,9.81572266 C17.2210199,9.62624606 17.4917075,9.38629843 17.7126788,9.10688904 L19.5925635,10.3963966 Z M40.5791681,8.93284507 L40.5791681,8.794401 C40.5791681,8.6179837 40.4547791,8.45817969 40.2791469,8.40477984 C39.8948223,8.28215795 39.4361122,8.2070026 38.9501275,8.2070026 C37.8583149,8.2070026 37.1855402,8.60730373 37.1855402,9.34896838 L37.1855402,9.38061274 C37.1855402,10.0154777 37.7566549,10.3837389 38.5765474,10.3837389 C39.7758056,10.3837389 40.5791681,9.78091387 40.5791681,8.93284507 Z M34.7246228,9.47159027 L34.7246228,9.43955035 C34.7246228,7.63107528 36.2181166,6.79882865 38.3504984,6.79882865 C39.2555209,6.79882865 39.9117656,6.93766828 40.5506536,7.14019217 L40.5506536,7.0017481 C40.5506536,6.03066186 39.8948223,5.48677445 38.6220052,5.48677445 C37.6492093,5.48677445 36.9590779,5.65725843 36.1387721,5.93454212 L35.4998841,4.14268033 C36.4896233,3.7423792 37.4624192,3.47537993 38.9897997,3.47537993 C40.3812202,3.47537993 41.3879028,3.81674344 42.0272041,4.40374629 C42.6999788,5.02239349 43,5.93454212 43,7.04446799 L43,11.8453127 L40.5337103,11.8453127 L40.5337103,10.9493818 C39.9117656,11.5838512 39.0575731,11.9999745 37.8132704,11.9999745 C36.1160433,12.0055123 34.7246228,11.1091858 34.7246228,9.47159027 Z" id="Combined-Shape" fill="#000000" fill-rule="nonzero"></path>
    </g>
</svg>