<?xml version="1.0" standalone="no"?>
<!DOCTYPE svg PUBLIC "-//W3C//DTD SVG 20010904//EN"
 "http://www.w3.org/TR/2001/REC-SVG-20010904/DTD/svg10.dtd">
<svg version="1.0" xmlns="http://www.w3.org/2000/svg"
 width="7358.000000pt" height="10417.000000pt" viewBox="0 0 7358.000000 10417.000000"
 preserveAspectRatio="xMidYMid meet">

<g transform="translate(0.000000,10417.000000) scale(0.100000,-0.100000)"
fill="#000000" stroke="none">
<path d="M7613 100827 l-7613 -3342 0 -7575 0 -7575 20255 -9734 c11140 -5354
20255 -9737 20255 -9740 0 -3 -9114 -4477 -20253 -9941 l-20252 -9936 0 -7469
0 -7469 29289 -14019 c18659 -8931 29291 -14015 29296 -14008 3 6 3377 1514
7496 3351 l7489 3339 3 23415 2 23416 -22 -10 c-13 -6 -3387 -1526 -7498
-3379 l-7475 -3368 -5 -15860 -5 -15860 -19873 9556 c-15930 7660 -19870 9558
-19858 9567 9 6 8952 4560 19873 10119 10922 5559 19865 10115 19873 10123 8
7 3383 1516 7500 3351 l7485 3337 3 7513 2 7513 -22 -7 c-13 -4 -34 -8 -48 -8
-14 -1 -13088 6289 -29140 14017 -16013 7710 -29122 14020 -29130 14022 -8 1
-3441 -1501 -7627 -3339z"/>
</g>
</svg>
